<mxfile host="www.draw.io" modified="2020-02-25T19:46:52.757Z" agent="Mozilla/5.0 (Windows NT 6.1; Win64; x64; rv:72.0) Gecko/20100101 Firefox/72.0" etag="IB5El-BMtiVUYfE_i7zq" version="12.7.5" type="github">
  <diagram id="wqrzW7VOQV8VKz6F3L5b" name="Page-1">
    <mxGraphModel dx="981" dy="1699" grid="1" gridSize="10" guides="1" tooltips="1" connect="1" arrows="1" fold="1" page="1" pageScale="1" pageWidth="827" pageHeight="1169" math="0" shadow="0">
      <root>
        <mxCell id="0" />
        <mxCell id="1" parent="0" />
        <mxCell id="4j2mSAYdcBih2xaInqb0-171" value="" style="rounded=0;whiteSpace=wrap;html=1;dashed=1;fillColor=none;" vertex="1" parent="1">
          <mxGeometry x="1021.5" y="-50" width="158.5" height="140" as="geometry" />
        </mxCell>
        <mxCell id="BfqA-5hL49ObXef9dS9Z-31" value="" style="verticalLabelPosition=bottom;dashed=0;shadow=0;html=1;align=center;verticalAlign=top;shape=mxgraph.cabinets.din_rail;" parent="1" vertex="1">
          <mxGeometry x="159.5" y="567.5" width="500" height="25" as="geometry" />
        </mxCell>
        <mxCell id="BfqA-5hL49ObXef9dS9Z-26" value="" style="verticalLabelPosition=bottom;dashed=0;shadow=0;html=1;align=center;verticalAlign=top;shape=mxgraph.cabinets.din_rail;" parent="1" vertex="1">
          <mxGeometry x="159.5" y="330" width="500" height="25" as="geometry" />
        </mxCell>
        <mxCell id="BfqA-5hL49ObXef9dS9Z-92" style="edgeStyle=orthogonalEdgeStyle;rounded=0;jumpSize=3;orthogonalLoop=1;jettySize=auto;html=1;exitX=0.5;exitY=1;exitDx=0;exitDy=0;entryX=0.25;entryY=1;entryDx=0;entryDy=0;startSize=3;endArrow=blockThin;endFill=1;endSize=3;fontSize=8;" parent="1" source="BfqA-5hL49ObXef9dS9Z-1" target="BfqA-5hL49ObXef9dS9Z-29" edge="1">
          <mxGeometry relative="1" as="geometry">
            <Array as="points">
              <mxPoint x="276" y="400" />
              <mxPoint x="150" y="400" />
              <mxPoint x="150" y="630" />
              <mxPoint x="183" y="630" />
            </Array>
          </mxGeometry>
        </mxCell>
        <mxCell id="BfqA-5hL49ObXef9dS9Z-1" value="" style="rounded=0;whiteSpace=wrap;html=1;" parent="1" vertex="1">
          <mxGeometry x="261" y="310" width="30" height="70" as="geometry" />
        </mxCell>
        <mxCell id="BfqA-5hL49ObXef9dS9Z-4" value="Обогрев" style="text;html=1;align=center;verticalAlign=middle;resizable=0;points=[];;autosize=1;rotation=-90;fontSize=8;" parent="1" vertex="1">
          <mxGeometry x="251" y="335" width="50" height="20" as="geometry" />
        </mxCell>
        <mxCell id="BfqA-5hL49ObXef9dS9Z-33" style="edgeStyle=orthogonalEdgeStyle;rounded=0;orthogonalLoop=1;jettySize=auto;html=1;exitX=0.75;exitY=1;exitDx=0;exitDy=0;endArrow=blockThin;endFill=1;entryX=0.5;entryY=0;entryDx=0;entryDy=0;fillColor=#dae8fc;strokeColor=#000000;" parent="1" source="BfqA-5hL49ObXef9dS9Z-5" target="BfqA-5hL49ObXef9dS9Z-1" edge="1">
          <mxGeometry relative="1" as="geometry">
            <mxPoint x="250" y="260" as="targetPoint" />
            <Array as="points">
              <mxPoint x="225" y="390" />
              <mxPoint x="250" y="390" />
              <mxPoint x="250" y="290" />
              <mxPoint x="276" y="290" />
            </Array>
          </mxGeometry>
        </mxCell>
        <mxCell id="BfqA-5hL49ObXef9dS9Z-37" style="edgeStyle=orthogonalEdgeStyle;rounded=0;orthogonalLoop=1;jettySize=auto;html=1;exitX=0.75;exitY=1;exitDx=0;exitDy=0;entryX=0.5;entryY=0;entryDx=0;entryDy=0;endArrow=blockThin;endFill=1;fontSize=8;fillColor=#dae8fc;strokeColor=#000000;" parent="1" source="BfqA-5hL49ObXef9dS9Z-5" target="BfqA-5hL49ObXef9dS9Z-14" edge="1">
          <mxGeometry relative="1" as="geometry">
            <Array as="points">
              <mxPoint x="225" y="390" />
              <mxPoint x="250" y="390" />
              <mxPoint x="250" y="290" />
              <mxPoint x="306" y="290" />
            </Array>
          </mxGeometry>
        </mxCell>
        <mxCell id="BfqA-5hL49ObXef9dS9Z-38" style="edgeStyle=orthogonalEdgeStyle;rounded=0;orthogonalLoop=1;jettySize=auto;html=1;exitX=0.75;exitY=1;exitDx=0;exitDy=0;entryX=0.5;entryY=0;entryDx=0;entryDy=0;endArrow=blockThin;endFill=1;fontSize=8;fillColor=#dae8fc;strokeColor=#000000;" parent="1" source="BfqA-5hL49ObXef9dS9Z-5" target="BfqA-5hL49ObXef9dS9Z-12" edge="1">
          <mxGeometry relative="1" as="geometry">
            <Array as="points">
              <mxPoint x="225" y="390" />
              <mxPoint x="250" y="390" />
              <mxPoint x="250" y="290" />
              <mxPoint x="337" y="290" />
            </Array>
          </mxGeometry>
        </mxCell>
        <mxCell id="BfqA-5hL49ObXef9dS9Z-39" style="edgeStyle=orthogonalEdgeStyle;rounded=0;orthogonalLoop=1;jettySize=auto;html=1;exitX=0.75;exitY=1;exitDx=0;exitDy=0;entryX=0.5;entryY=0;entryDx=0;entryDy=0;endArrow=blockThin;endFill=1;fontSize=8;fillColor=#dae8fc;strokeColor=#000000;" parent="1" source="BfqA-5hL49ObXef9dS9Z-5" target="BfqA-5hL49ObXef9dS9Z-17" edge="1">
          <mxGeometry relative="1" as="geometry">
            <Array as="points">
              <mxPoint x="225" y="390" />
              <mxPoint x="250" y="390" />
              <mxPoint x="250" y="290" />
              <mxPoint x="368" y="290" />
            </Array>
          </mxGeometry>
        </mxCell>
        <mxCell id="BfqA-5hL49ObXef9dS9Z-48" style="edgeStyle=orthogonalEdgeStyle;rounded=0;orthogonalLoop=1;jettySize=auto;html=1;exitX=0.75;exitY=1;exitDx=0;exitDy=0;entryX=0.5;entryY=0;entryDx=0;entryDy=0;endArrow=blockThin;endFill=1;fontSize=8;fillColor=#dae8fc;strokeColor=#000000;" parent="1" source="BfqA-5hL49ObXef9dS9Z-5" target="BfqA-5hL49ObXef9dS9Z-46" edge="1">
          <mxGeometry relative="1" as="geometry">
            <Array as="points">
              <mxPoint x="225" y="390" />
              <mxPoint x="250" y="390" />
              <mxPoint x="250" y="290" />
              <mxPoint x="399" y="290" />
            </Array>
          </mxGeometry>
        </mxCell>
        <mxCell id="BfqA-5hL49ObXef9dS9Z-57" style="edgeStyle=orthogonalEdgeStyle;rounded=0;jumpSize=3;orthogonalLoop=1;jettySize=auto;html=1;exitX=0.25;exitY=1;exitDx=0;exitDy=0;entryX=0.75;entryY=0;entryDx=0;entryDy=0;startSize=3;endArrow=blockThin;endFill=1;endSize=3;fontSize=8;fillColor=#dae8fc;strokeColor=#6c8ebf;" parent="1" source="BfqA-5hL49ObXef9dS9Z-5" target="BfqA-5hL49ObXef9dS9Z-53" edge="1">
          <mxGeometry relative="1" as="geometry">
            <Array as="points">
              <mxPoint x="197" y="390" />
              <mxPoint x="250" y="390" />
              <mxPoint x="250" y="285" />
              <mxPoint x="476" y="285" />
            </Array>
          </mxGeometry>
        </mxCell>
        <mxCell id="BfqA-5hL49ObXef9dS9Z-118" style="edgeStyle=orthogonalEdgeStyle;rounded=0;jumpSize=3;orthogonalLoop=1;jettySize=auto;html=1;exitX=0.25;exitY=1;exitDx=0;exitDy=0;entryX=0.357;entryY=-0.006;entryDx=0;entryDy=0;entryPerimeter=0;startSize=3;endArrow=blockThin;endFill=1;endSize=3;fontSize=8;fillColor=#dae8fc;strokeColor=#6c8ebf;" parent="1" source="BfqA-5hL49ObXef9dS9Z-5" target="BfqA-5hL49ObXef9dS9Z-100" edge="1">
          <mxGeometry relative="1" as="geometry">
            <Array as="points">
              <mxPoint x="197" y="540" />
              <mxPoint x="381" y="540" />
            </Array>
          </mxGeometry>
        </mxCell>
        <mxCell id="BfqA-5hL49ObXef9dS9Z-5" value="" style="rounded=0;whiteSpace=wrap;html=1;" parent="1" vertex="1">
          <mxGeometry x="183.5" y="310" width="55" height="70" as="geometry" />
        </mxCell>
        <mxCell id="BfqA-5hL49ObXef9dS9Z-8" value="&lt;div&gt;Главный&lt;/div&gt;&lt;div&gt;автомат&lt;br&gt;&lt;/div&gt;" style="text;html=1;align=center;verticalAlign=middle;resizable=0;points=[];;autosize=1;rotation=-90;" parent="1" vertex="1">
          <mxGeometry x="178.5" y="330" width="60" height="30" as="geometry" />
        </mxCell>
        <mxCell id="BfqA-5hL49ObXef9dS9Z-12" value="" style="rounded=0;whiteSpace=wrap;html=1;" parent="1" vertex="1">
          <mxGeometry x="322" y="310" width="30" height="70" as="geometry" />
        </mxCell>
        <mxCell id="BfqA-5hL49ObXef9dS9Z-13" value="&lt;div style=&quot;font-size: 8px;&quot;&gt;Свет&lt;/div&gt;&lt;div style=&quot;font-size: 8px;&quot;&gt;по таймеру&lt;br style=&quot;font-size: 8px;&quot;&gt;&lt;/div&gt;" style="text;html=1;align=center;verticalAlign=middle;resizable=0;points=[];;autosize=1;rotation=-90;fontSize=8;" parent="1" vertex="1">
          <mxGeometry x="307" y="330" width="60" height="30" as="geometry" />
        </mxCell>
        <mxCell id="BfqA-5hL49ObXef9dS9Z-94" style="edgeStyle=orthogonalEdgeStyle;rounded=0;jumpSize=3;orthogonalLoop=1;jettySize=auto;html=1;exitX=0.5;exitY=1;exitDx=0;exitDy=0;entryX=0.25;entryY=1;entryDx=0;entryDy=0;startSize=3;endArrow=blockThin;endFill=1;endSize=3;fontSize=8;" parent="1" source="BfqA-5hL49ObXef9dS9Z-14" target="BfqA-5hL49ObXef9dS9Z-62" edge="1">
          <mxGeometry relative="1" as="geometry">
            <Array as="points">
              <mxPoint x="306" y="400" />
              <mxPoint x="150" y="400" />
              <mxPoint x="150" y="630" />
              <mxPoint x="279" y="630" />
            </Array>
          </mxGeometry>
        </mxCell>
        <mxCell id="BfqA-5hL49ObXef9dS9Z-14" value="" style="rounded=0;whiteSpace=wrap;html=1;" parent="1" vertex="1">
          <mxGeometry x="291" y="310" width="30" height="70" as="geometry" />
        </mxCell>
        <mxCell id="BfqA-5hL49ObXef9dS9Z-15" value="&lt;div style=&quot;font-size: 8px;&quot;&gt;вытяжная&lt;/div&gt;&lt;div style=&quot;font-size: 8px;&quot;&gt;вентиляция&lt;br style=&quot;font-size: 8px;&quot;&gt;&lt;/div&gt;" style="text;html=1;align=center;verticalAlign=middle;resizable=0;points=[];;autosize=1;rotation=-90;fontSize=8;" parent="1" vertex="1">
          <mxGeometry x="276" y="330" width="60" height="30" as="geometry" />
        </mxCell>
        <mxCell id="BfqA-5hL49ObXef9dS9Z-17" value="" style="rounded=0;whiteSpace=wrap;html=1;" parent="1" vertex="1">
          <mxGeometry x="353" y="310" width="30" height="70" as="geometry" />
        </mxCell>
        <mxCell id="BfqA-5hL49ObXef9dS9Z-18" value="Дежурный&lt;br style=&quot;font-size: 8px;&quot;&gt;&lt;div style=&quot;font-size: 8px;&quot;&gt;Свет&lt;/div&gt;" style="text;html=1;align=center;verticalAlign=middle;resizable=0;points=[];;autosize=1;rotation=-90;fontSize=8;" parent="1" vertex="1">
          <mxGeometry x="343" y="330" width="50" height="30" as="geometry" />
        </mxCell>
        <mxCell id="BfqA-5hL49ObXef9dS9Z-25" value="" style="verticalLabelPosition=bottom;dashed=0;shadow=0;html=1;align=center;verticalAlign=top;shape=mxgraph.cabinets.cb_1p;" parent="1" vertex="1">
          <mxGeometry x="70" y="345" width="9" height="50" as="geometry" />
        </mxCell>
        <mxCell id="BfqA-5hL49ObXef9dS9Z-32" value="" style="group;fontSize=8;" parent="1" vertex="1" connectable="0">
          <mxGeometry x="166" y="550" width="60" height="60" as="geometry" />
        </mxCell>
        <mxCell id="BfqA-5hL49ObXef9dS9Z-29" value="" style="rounded=0;whiteSpace=wrap;html=1;" parent="BfqA-5hL49ObXef9dS9Z-32" vertex="1">
          <mxGeometry x="6.5" width="43" height="60" as="geometry" />
        </mxCell>
        <mxCell id="BfqA-5hL49ObXef9dS9Z-30" value="&lt;div style=&quot;font-size: 8px;&quot;&gt;&lt;font style=&quot;font-size: 8px;&quot;&gt;Обогрев&lt;/font&gt;&lt;/div&gt;&lt;div style=&quot;font-size: 8px;&quot;&gt;&lt;font style=&quot;font-size: 8px;&quot;&gt;Оптич.&lt;/font&gt;&lt;/div&gt;&lt;div style=&quot;font-size: 8px;&quot;&gt;&lt;font style=&quot;font-size: 8px;&quot;&gt;Реле&lt;br style=&quot;font-size: 8px;&quot;&gt;&lt;/font&gt;&lt;/div&gt;" style="text;html=1;align=center;verticalAlign=middle;resizable=0;points=[];;autosize=1;rotation=-90;fontSize=8;" parent="BfqA-5hL49ObXef9dS9Z-32" vertex="1">
          <mxGeometry x="5" y="10" width="50" height="40" as="geometry" />
        </mxCell>
        <mxCell id="BfqA-5hL49ObXef9dS9Z-56" style="edgeStyle=orthogonalEdgeStyle;rounded=0;orthogonalLoop=1;jettySize=auto;html=1;exitX=0.5;exitY=1;exitDx=0;exitDy=0;entryX=0.25;entryY=0;entryDx=0;entryDy=0;endArrow=blockThin;endFill=1;fontSize=8;endSize=3;startSize=3;jumpSize=3;fillColor=#dae8fc;strokeColor=#000000;" parent="1" source="BfqA-5hL49ObXef9dS9Z-46" target="BfqA-5hL49ObXef9dS9Z-53" edge="1">
          <mxGeometry relative="1" as="geometry">
            <Array as="points">
              <mxPoint x="409" y="390" />
              <mxPoint x="430" y="390" />
              <mxPoint x="430" y="290" />
              <mxPoint x="451" y="290" />
            </Array>
          </mxGeometry>
        </mxCell>
        <mxCell id="BfqA-5hL49ObXef9dS9Z-46" value="" style="rounded=0;whiteSpace=wrap;html=1;" parent="1" vertex="1">
          <mxGeometry x="384" y="310" width="30" height="70" as="geometry" />
        </mxCell>
        <mxCell id="BfqA-5hL49ObXef9dS9Z-47" value="Автоматика" style="text;html=1;align=center;verticalAlign=middle;resizable=0;points=[];;autosize=1;rotation=-90;fontSize=8;" parent="1" vertex="1">
          <mxGeometry x="369" y="335" width="60" height="20" as="geometry" />
        </mxCell>
        <mxCell id="BfqA-5hL49ObXef9dS9Z-52" value="" style="group;fontSize=8;" parent="1" vertex="1" connectable="0">
          <mxGeometry x="431" y="305" width="75" height="80" as="geometry" />
        </mxCell>
        <mxCell id="BfqA-5hL49ObXef9dS9Z-53" value="" style="rounded=0;whiteSpace=wrap;html=1;" parent="BfqA-5hL49ObXef9dS9Z-52" vertex="1">
          <mxGeometry x="7.5" width="49.61538461538461" height="80" as="geometry" />
        </mxCell>
        <mxCell id="BfqA-5hL49ObXef9dS9Z-54" value="&lt;div&gt;Блок питания&lt;/div&gt;&lt;div&gt;Arduino&lt;br&gt;&lt;/div&gt;" style="text;html=1;align=center;verticalAlign=middle;resizable=0;points=[];;autosize=1;rotation=-90;fontSize=8;" parent="BfqA-5hL49ObXef9dS9Z-52" vertex="1">
          <mxGeometry x="0.23076923076923084" y="25" width="70" height="30" as="geometry" />
        </mxCell>
        <mxCell id="BfqA-5hL49ObXef9dS9Z-61" value="" style="group;fontSize=8;" parent="1" vertex="1" connectable="0">
          <mxGeometry x="262" y="550" width="80" height="60" as="geometry" />
        </mxCell>
        <mxCell id="BfqA-5hL49ObXef9dS9Z-62" value="" style="rounded=0;whiteSpace=wrap;html=1;" parent="BfqA-5hL49ObXef9dS9Z-61" vertex="1">
          <mxGeometry x="6.5" width="43" height="60" as="geometry" />
        </mxCell>
        <mxCell id="BfqA-5hL49ObXef9dS9Z-63" value="&lt;div&gt;Вытяжная &lt;br&gt;&lt;/div&gt;&lt;div&gt;вентиляция&lt;/div&gt;" style="text;html=1;align=center;verticalAlign=middle;resizable=0;points=[];;autosize=1;rotation=-90;fontSize=8;" parent="BfqA-5hL49ObXef9dS9Z-61" vertex="1">
          <mxGeometry y="15" width="60" height="30" as="geometry" />
        </mxCell>
        <mxCell id="BfqA-5hL49ObXef9dS9Z-75" style="edgeStyle=orthogonalEdgeStyle;rounded=0;jumpSize=3;orthogonalLoop=1;jettySize=auto;html=1;exitX=0.25;exitY=1;exitDx=0;exitDy=0;entryX=0.25;entryY=0;entryDx=0;entryDy=0;startSize=3;endArrow=blockThin;endFill=1;endSize=3;fontSize=8;" parent="1" source="BfqA-5hL49ObXef9dS9Z-53" target="BfqA-5hL49ObXef9dS9Z-74" edge="1">
          <mxGeometry relative="1" as="geometry" />
        </mxCell>
        <mxCell id="BfqA-5hL49ObXef9dS9Z-77" style="edgeStyle=orthogonalEdgeStyle;rounded=0;jumpSize=3;orthogonalLoop=1;jettySize=auto;html=1;exitX=0.75;exitY=1;exitDx=0;exitDy=0;entryX=0.75;entryY=0;entryDx=0;entryDy=0;startSize=3;endArrow=blockThin;endFill=1;endSize=3;fontSize=8;fillColor=#f8cecc;strokeColor=#b85450;" parent="1" source="BfqA-5hL49ObXef9dS9Z-53" target="BfqA-5hL49ObXef9dS9Z-74" edge="1">
          <mxGeometry relative="1" as="geometry">
            <Array as="points">
              <mxPoint x="476" y="420" />
              <mxPoint x="258" y="420" />
            </Array>
          </mxGeometry>
        </mxCell>
        <mxCell id="BfqA-5hL49ObXef9dS9Z-78" value="" style="verticalLabelPosition=bottom;dashed=0;shadow=0;html=1;align=center;verticalAlign=top;shape=mxgraph.cabinets.din_rail;" parent="1" vertex="1">
          <mxGeometry x="159.5" y="460" width="500" height="25" as="geometry" />
        </mxCell>
        <mxCell id="BfqA-5hL49ObXef9dS9Z-82" style="edgeStyle=orthogonalEdgeStyle;rounded=0;jumpSize=3;orthogonalLoop=1;jettySize=auto;html=1;exitX=0.25;exitY=1;exitDx=0;exitDy=0;entryX=0.25;entryY=0;entryDx=0;entryDy=0;startSize=3;endArrow=blockThin;endFill=1;endSize=3;fontSize=8;" parent="1" source="BfqA-5hL49ObXef9dS9Z-74" target="BfqA-5hL49ObXef9dS9Z-29" edge="1">
          <mxGeometry relative="1" as="geometry">
            <Array as="points">
              <mxPoint x="208" y="510" />
              <mxPoint x="183" y="510" />
            </Array>
          </mxGeometry>
        </mxCell>
        <mxCell id="BfqA-5hL49ObXef9dS9Z-97" style="edgeStyle=orthogonalEdgeStyle;rounded=0;jumpSize=3;orthogonalLoop=1;jettySize=auto;html=1;exitX=0.5;exitY=1;exitDx=0;exitDy=0;entryX=0.25;entryY=0;entryDx=0;entryDy=0;startSize=3;endArrow=blockThin;endFill=1;endSize=3;fontSize=8;" parent="1" source="BfqA-5hL49ObXef9dS9Z-74" target="BfqA-5hL49ObXef9dS9Z-62" edge="1">
          <mxGeometry relative="1" as="geometry" />
        </mxCell>
        <mxCell id="BfqA-5hL49ObXef9dS9Z-74" value="Arduino" style="rounded=0;whiteSpace=wrap;html=1;fontSize=8;" parent="1" vertex="1">
          <mxGeometry x="183.5" y="442.5" width="99" height="60" as="geometry" />
        </mxCell>
        <mxCell id="BfqA-5hL49ObXef9dS9Z-80" value="" style="verticalLabelPosition=bottom;dashed=0;shadow=0;html=1;align=center;verticalAlign=top;shape=mxgraph.cabinets.terminal_6_25mm2;fontSize=8;" parent="1" vertex="1">
          <mxGeometry x="298" y="454" width="5" height="37.5" as="geometry" />
        </mxCell>
        <mxCell id="BfqA-5hL49ObXef9dS9Z-83" style="edgeStyle=orthogonalEdgeStyle;rounded=0;jumpSize=3;orthogonalLoop=1;jettySize=auto;html=1;exitX=0.75;exitY=0;exitDx=0;exitDy=0;entryX=0.429;entryY=1.002;entryDx=0;entryDy=0;entryPerimeter=0;startSize=3;endArrow=blockThin;endFill=1;endSize=3;fontSize=8;" parent="1" source="BfqA-5hL49ObXef9dS9Z-29" target="BfqA-5hL49ObXef9dS9Z-80" edge="1">
          <mxGeometry relative="1" as="geometry">
            <Array as="points">
              <mxPoint x="205" y="521" />
              <mxPoint x="300" y="521" />
            </Array>
          </mxGeometry>
        </mxCell>
        <mxCell id="BfqA-5hL49ObXef9dS9Z-84" value="" style="verticalLabelPosition=bottom;dashed=0;shadow=0;html=1;align=center;verticalAlign=top;shape=mxgraph.cabinets.terminal_6_25mm2;fontSize=8;" parent="1" vertex="1">
          <mxGeometry x="303" y="454" width="5" height="37.5" as="geometry" />
        </mxCell>
        <mxCell id="BfqA-5hL49ObXef9dS9Z-85" value="" style="verticalLabelPosition=bottom;dashed=0;shadow=0;html=1;align=center;verticalAlign=top;shape=mxgraph.cabinets.terminal_6_25mm2;fontSize=8;" parent="1" vertex="1">
          <mxGeometry x="308" y="454" width="5" height="37.5" as="geometry" />
        </mxCell>
        <mxCell id="BfqA-5hL49ObXef9dS9Z-86" value="" style="verticalLabelPosition=bottom;dashed=0;shadow=0;html=1;align=center;verticalAlign=top;shape=mxgraph.cabinets.terminal_6_25mm2;fontSize=8;" parent="1" vertex="1">
          <mxGeometry x="313" y="454" width="5" height="37.5" as="geometry" />
        </mxCell>
        <mxCell id="BfqA-5hL49ObXef9dS9Z-87" value="" style="verticalLabelPosition=bottom;dashed=0;shadow=0;html=1;align=center;verticalAlign=top;shape=mxgraph.cabinets.terminal_6_25mm2;fontSize=8;" parent="1" vertex="1">
          <mxGeometry x="318" y="454" width="5" height="37.5" as="geometry" />
        </mxCell>
        <mxCell id="BfqA-5hL49ObXef9dS9Z-88" value="" style="verticalLabelPosition=bottom;dashed=0;shadow=0;html=1;align=center;verticalAlign=top;shape=mxgraph.cabinets.terminal_6_25mm2;fontSize=8;" parent="1" vertex="1">
          <mxGeometry x="323" y="454" width="5" height="37.5" as="geometry" />
        </mxCell>
        <mxCell id="BfqA-5hL49ObXef9dS9Z-91" style="edgeStyle=orthogonalEdgeStyle;rounded=0;jumpSize=3;orthogonalLoop=1;jettySize=auto;html=1;exitX=0.75;exitY=0;exitDx=0;exitDy=0;startSize=3;endArrow=blockThin;endFill=1;endSize=3;fontSize=8;entryX=0.44;entryY=1.013;entryDx=0;entryDy=0;entryPerimeter=0;" parent="1" source="BfqA-5hL49ObXef9dS9Z-62" target="BfqA-5hL49ObXef9dS9Z-85" edge="1">
          <mxGeometry relative="1" as="geometry">
            <mxPoint x="310" y="510" as="targetPoint" />
            <Array as="points">
              <mxPoint x="301" y="540" />
              <mxPoint x="310" y="540" />
            </Array>
          </mxGeometry>
        </mxCell>
        <mxCell id="BfqA-5hL49ObXef9dS9Z-100" value="" style="verticalLabelPosition=bottom;dashed=0;shadow=0;html=1;align=center;verticalAlign=top;shape=mxgraph.cabinets.terminal_6_25mm2;fontSize=8;" parent="1" vertex="1">
          <mxGeometry x="379.5" y="561.5" width="5" height="37.5" as="geometry" />
        </mxCell>
        <mxCell id="BfqA-5hL49ObXef9dS9Z-101" value="" style="verticalLabelPosition=bottom;dashed=0;shadow=0;html=1;align=center;verticalAlign=top;shape=mxgraph.cabinets.terminal_6_25mm2;fontSize=8;" parent="1" vertex="1">
          <mxGeometry x="384.5" y="561.5" width="5" height="37.5" as="geometry" />
        </mxCell>
        <mxCell id="BfqA-5hL49ObXef9dS9Z-102" value="" style="verticalLabelPosition=bottom;dashed=0;shadow=0;html=1;align=center;verticalAlign=top;shape=mxgraph.cabinets.terminal_6_25mm2;fontSize=8;" parent="1" vertex="1">
          <mxGeometry x="389.5" y="561.5" width="5" height="37.5" as="geometry" />
        </mxCell>
        <mxCell id="BfqA-5hL49ObXef9dS9Z-103" value="" style="verticalLabelPosition=bottom;dashed=0;shadow=0;html=1;align=center;verticalAlign=top;shape=mxgraph.cabinets.terminal_6_25mm2;fontSize=8;" parent="1" vertex="1">
          <mxGeometry x="394.5" y="561.5" width="5" height="37.5" as="geometry" />
        </mxCell>
        <mxCell id="BfqA-5hL49ObXef9dS9Z-104" value="" style="verticalLabelPosition=bottom;dashed=0;shadow=0;html=1;align=center;verticalAlign=top;shape=mxgraph.cabinets.terminal_6_25mm2;fontSize=8;" parent="1" vertex="1">
          <mxGeometry x="399.5" y="561.5" width="5" height="37.5" as="geometry" />
        </mxCell>
        <mxCell id="BfqA-5hL49ObXef9dS9Z-105" value="" style="verticalLabelPosition=bottom;dashed=0;shadow=0;html=1;align=center;verticalAlign=top;shape=mxgraph.cabinets.terminal_6_25mm2;fontSize=8;" parent="1" vertex="1">
          <mxGeometry x="404.5" y="561.5" width="5" height="37.5" as="geometry" />
        </mxCell>
        <mxCell id="BfqA-5hL49ObXef9dS9Z-112" style="edgeStyle=orthogonalEdgeStyle;rounded=0;jumpSize=3;orthogonalLoop=1;jettySize=auto;html=1;exitX=0.25;exitY=1;exitDx=0;exitDy=0;entryX=0.657;entryY=0.011;entryDx=0;entryDy=0;entryPerimeter=0;startSize=3;endArrow=blockThin;endFill=1;endSize=3;fontSize=8;" parent="1" source="BfqA-5hL49ObXef9dS9Z-53" target="BfqA-5hL49ObXef9dS9Z-80" edge="1">
          <mxGeometry relative="1" as="geometry" />
        </mxCell>
        <mxCell id="BfqA-5hL49ObXef9dS9Z-113" style="edgeStyle=orthogonalEdgeStyle;rounded=0;jumpSize=3;orthogonalLoop=1;jettySize=auto;html=1;exitX=0.25;exitY=1;exitDx=0;exitDy=0;entryX=0.457;entryY=-0.004;entryDx=0;entryDy=0;entryPerimeter=0;startSize=3;endArrow=blockThin;endFill=1;endSize=3;fontSize=8;" parent="1" source="BfqA-5hL49ObXef9dS9Z-53" target="BfqA-5hL49ObXef9dS9Z-84" edge="1">
          <mxGeometry relative="1" as="geometry" />
        </mxCell>
        <mxCell id="BfqA-5hL49ObXef9dS9Z-114" style="edgeStyle=orthogonalEdgeStyle;rounded=0;jumpSize=3;orthogonalLoop=1;jettySize=auto;html=1;exitX=0.25;exitY=1;exitDx=0;exitDy=0;entryX=0.257;entryY=0.011;entryDx=0;entryDy=0;entryPerimeter=0;startSize=3;endArrow=blockThin;endFill=1;endSize=3;fontSize=8;" parent="1" source="BfqA-5hL49ObXef9dS9Z-53" target="BfqA-5hL49ObXef9dS9Z-85" edge="1">
          <mxGeometry relative="1" as="geometry" />
        </mxCell>
        <mxCell id="BfqA-5hL49ObXef9dS9Z-115" style="edgeStyle=orthogonalEdgeStyle;rounded=0;jumpSize=3;orthogonalLoop=1;jettySize=auto;html=1;exitX=0.25;exitY=1;exitDx=0;exitDy=0;entryX=0.4;entryY=-0.004;entryDx=0;entryDy=0;entryPerimeter=0;startSize=3;endArrow=blockThin;endFill=1;endSize=3;fontSize=8;" parent="1" source="BfqA-5hL49ObXef9dS9Z-53" target="BfqA-5hL49ObXef9dS9Z-86" edge="1">
          <mxGeometry relative="1" as="geometry" />
        </mxCell>
        <mxCell id="BfqA-5hL49ObXef9dS9Z-116" style="edgeStyle=orthogonalEdgeStyle;rounded=0;jumpSize=3;orthogonalLoop=1;jettySize=auto;html=1;exitX=0.75;exitY=1;exitDx=0;exitDy=0;startSize=3;endArrow=blockThin;endFill=1;endSize=3;fontSize=8;" parent="1" source="BfqA-5hL49ObXef9dS9Z-29" edge="1">
          <mxGeometry relative="1" as="geometry">
            <mxPoint x="204.71428571428567" y="660" as="targetPoint" />
          </mxGeometry>
        </mxCell>
        <mxCell id="9ChTPCuCqNJJcKxQrMFu-1" value="" style="rounded=0;whiteSpace=wrap;html=1;" parent="1" vertex="1">
          <mxGeometry x="424.5" y="442.5" width="155.5" height="60" as="geometry" />
        </mxCell>
        <mxCell id="9ChTPCuCqNJJcKxQrMFu-2" value="&lt;div style=&quot;font-size: 8px&quot;&gt;Реле&lt;/div&gt;&lt;div style=&quot;font-size: 8px&quot;&gt;освещения&lt;/div&gt;&lt;div style=&quot;font-size: 8px&quot;&gt;К1&lt;br&gt;&lt;/div&gt;" style="rounded=0;whiteSpace=wrap;html=1;rotation=-90;" parent="1" vertex="1">
          <mxGeometry x="426.37" y="458.13" width="40" height="28.75" as="geometry" />
        </mxCell>
        <mxCell id="9ChTPCuCqNJJcKxQrMFu-6" value="&lt;div style=&quot;font-size: 8px&quot;&gt;&lt;font style=&quot;font-size: 8px&quot;&gt;Реле&lt;/font&gt;&lt;/div&gt;&lt;div style=&quot;font-size: 8px&quot;&gt;&lt;font style=&quot;font-size: 8px&quot;&gt;Ночник&lt;br&gt;&lt;/font&gt;&lt;/div&gt;&lt;div style=&quot;font-size: 8px&quot;&gt;&lt;font style=&quot;font-size: 8px&quot;&gt;К2&lt;/font&gt;&lt;br&gt;&lt;/div&gt;" style="rounded=0;whiteSpace=wrap;html=1;rotation=-90;" parent="1" vertex="1">
          <mxGeometry x="464.5" y="457.5" width="40" height="30" as="geometry" />
        </mxCell>
        <mxCell id="9ChTPCuCqNJJcKxQrMFu-9" style="edgeStyle=orthogonalEdgeStyle;rounded=0;jumpSize=3;orthogonalLoop=1;jettySize=auto;html=1;exitX=0.75;exitY=1;exitDx=0;exitDy=0;startSize=3;endArrow=blockThin;endFill=1;endSize=3;fontSize=8;" parent="1" edge="1">
          <mxGeometry relative="1" as="geometry">
            <mxPoint x="301.5742857142857" y="659.81" as="targetPoint" />
            <mxPoint x="301.6099999999999" y="609.8100000000001" as="sourcePoint" />
            <Array as="points">
              <mxPoint x="301.12" y="639.81" />
              <mxPoint x="301.12" y="639.81" />
            </Array>
          </mxGeometry>
        </mxCell>
        <mxCell id="9ChTPCuCqNJJcKxQrMFu-11" value="I2C RTC" style="rounded=0;whiteSpace=wrap;html=1;rotation=-90;" parent="1" vertex="1">
          <mxGeometry x="379.5" y="457.5" width="40" height="28.75" as="geometry" />
        </mxCell>
        <mxCell id="4j2mSAYdcBih2xaInqb0-1" value="+5v" style="text;html=1;align=center;verticalAlign=middle;resizable=0;points=[];autosize=1;" vertex="1" parent="1">
          <mxGeometry x="474.5" y="385" width="30" height="20" as="geometry" />
        </mxCell>
        <mxCell id="4j2mSAYdcBih2xaInqb0-93" style="edgeStyle=orthogonalEdgeStyle;rounded=0;orthogonalLoop=1;jettySize=auto;html=1;exitX=0.5;exitY=1;exitDx=0;exitDy=0;entryX=1;entryY=1;entryDx=0;entryDy=0;entryPerimeter=0;" edge="1" parent="1" source="4j2mSAYdcBih2xaInqb0-2" target="4j2mSAYdcBih2xaInqb0-84">
          <mxGeometry relative="1" as="geometry">
            <Array as="points">
              <mxPoint x="243" y="27" />
            </Array>
          </mxGeometry>
        </mxCell>
        <mxCell id="4j2mSAYdcBih2xaInqb0-2" value="" style="rounded=0;whiteSpace=wrap;html=1;" vertex="1" parent="1">
          <mxGeometry x="228" y="-73" width="30" height="70" as="geometry" />
        </mxCell>
        <mxCell id="4j2mSAYdcBih2xaInqb0-3" value="Автомат&lt;br&gt;&lt;div&gt;Освещение&lt;/div&gt;" style="text;html=1;align=center;verticalAlign=middle;resizable=0;points=[];;autosize=1;rotation=-90;fontSize=8;" vertex="1" parent="1">
          <mxGeometry x="213" y="-53" width="60" height="30" as="geometry" />
        </mxCell>
        <mxCell id="4j2mSAYdcBih2xaInqb0-35" style="edgeStyle=orthogonalEdgeStyle;rounded=0;orthogonalLoop=1;jettySize=auto;html=1;entryX=1;entryY=0.43;entryDx=0;entryDy=0;entryPerimeter=0;" edge="1" parent="1" source="4j2mSAYdcBih2xaInqb0-13" target="4j2mSAYdcBih2xaInqb0-32">
          <mxGeometry relative="1" as="geometry" />
        </mxCell>
        <mxCell id="4j2mSAYdcBih2xaInqb0-13" value="&lt;div&gt;Arduino&lt;br&gt;&lt;/div&gt;&lt;div&gt;8pin&lt;/div&gt;" style="text;html=1;align=center;verticalAlign=middle;resizable=0;points=[];autosize=1;" vertex="1" parent="1">
          <mxGeometry x="306.5" y="-247" width="60" height="30" as="geometry" />
        </mxCell>
        <mxCell id="4j2mSAYdcBih2xaInqb0-16" style="edgeStyle=orthogonalEdgeStyle;rounded=0;orthogonalLoop=1;jettySize=auto;html=1;entryX=0.5;entryY=1;entryDx=0;entryDy=0;entryPerimeter=0;" edge="1" parent="1" source="4j2mSAYdcBih2xaInqb0-15" target="4j2mSAYdcBih2xaInqb0-85">
          <mxGeometry relative="1" as="geometry">
            <mxPoint x="358.75" y="-43.00000000000023" as="targetPoint" />
            <Array as="points">
              <mxPoint x="381" y="-62" />
              <mxPoint x="359" y="-62" />
            </Array>
          </mxGeometry>
        </mxCell>
        <mxCell id="4j2mSAYdcBih2xaInqb0-15" value="-5V" style="text;html=1;align=center;verticalAlign=middle;resizable=0;points=[];autosize=1;" vertex="1" parent="1">
          <mxGeometry x="366" y="-102" width="30" height="20" as="geometry" />
        </mxCell>
        <mxCell id="4j2mSAYdcBih2xaInqb0-21" style="edgeStyle=orthogonalEdgeStyle;rounded=0;orthogonalLoop=1;jettySize=auto;html=1;entryX=0.5;entryY=0;entryDx=0;entryDy=0;" edge="1" parent="1" source="4j2mSAYdcBih2xaInqb0-19" target="4j2mSAYdcBih2xaInqb0-2">
          <mxGeometry relative="1" as="geometry" />
        </mxCell>
        <mxCell id="4j2mSAYdcBih2xaInqb0-19" value="L" style="text;html=1;align=center;verticalAlign=middle;resizable=0;points=[];autosize=1;" vertex="1" parent="1">
          <mxGeometry x="233" y="-123" width="20" height="20" as="geometry" />
        </mxCell>
        <mxCell id="4j2mSAYdcBih2xaInqb0-24" style="edgeStyle=orthogonalEdgeStyle;rounded=0;orthogonalLoop=1;jettySize=auto;html=1;exitX=1;exitY=0.84;exitDx=0;exitDy=0;exitPerimeter=0;entryX=1;entryY=0.43;entryDx=0;entryDy=0;entryPerimeter=0;" edge="1" parent="1" source="4j2mSAYdcBih2xaInqb0-22" target="4j2mSAYdcBih2xaInqb0-32">
          <mxGeometry relative="1" as="geometry">
            <mxPoint x="335.38" y="-127" as="targetPoint" />
          </mxGeometry>
        </mxCell>
        <mxCell id="4j2mSAYdcBih2xaInqb0-22" value="" style="pointerEvents=1;verticalLabelPosition=bottom;shadow=0;dashed=0;align=center;html=1;verticalAlign=top;shape=mxgraph.electrical.electro-mechanical.simple_switch;rotation=90;" vertex="1" parent="1">
          <mxGeometry x="258.88" y="-229" width="75" height="19" as="geometry" />
        </mxCell>
        <mxCell id="4j2mSAYdcBih2xaInqb0-25" value="+5v" style="text;html=1;align=center;verticalAlign=middle;resizable=0;points=[];autosize=1;" vertex="1" parent="1">
          <mxGeometry x="275.88" y="-280" width="30" height="20" as="geometry" />
        </mxCell>
        <mxCell id="4j2mSAYdcBih2xaInqb0-28" value="&lt;div style=&quot;font-size: 10px&quot;&gt;&lt;font style=&quot;font-size: 10px&quot;&gt;Man&lt;/font&gt;&lt;/div&gt;&lt;div style=&quot;font-size: 10px&quot;&gt;&lt;font style=&quot;font-size: 10px&quot;&gt;&lt;font style=&quot;font-size: 10px&quot;&gt;ON&lt;/font&gt;&lt;br&gt;&lt;/font&gt;&lt;/div&gt;" style="text;html=1;align=center;verticalAlign=middle;resizable=0;points=[];autosize=1;rotation=-90;" vertex="1" parent="1">
          <mxGeometry x="256.38" y="-234.5" width="40" height="30" as="geometry" />
        </mxCell>
        <mxCell id="4j2mSAYdcBih2xaInqb0-90" style="edgeStyle=orthogonalEdgeStyle;rounded=0;orthogonalLoop=1;jettySize=auto;html=1;exitX=0;exitY=0.43;exitDx=0;exitDy=0;exitPerimeter=0;entryX=0.5;entryY=0;entryDx=0;entryDy=0;entryPerimeter=0;" edge="1" parent="1" source="4j2mSAYdcBih2xaInqb0-32" target="4j2mSAYdcBih2xaInqb0-85">
          <mxGeometry relative="1" as="geometry" />
        </mxCell>
        <mxCell id="4j2mSAYdcBih2xaInqb0-32" value="" style="pointerEvents=1;verticalLabelPosition=bottom;shadow=0;dashed=0;align=center;html=1;verticalAlign=top;shape=mxgraph.electrical.electro-mechanical.stay_put;rotation=-90;" vertex="1" parent="1">
          <mxGeometry x="299.5" y="-90.5" width="75" height="7" as="geometry" />
        </mxCell>
        <mxCell id="4j2mSAYdcBih2xaInqb0-33" value="&lt;div style=&quot;font-size: 10px&quot;&gt;&lt;font style=&quot;font-size: 10px&quot;&gt;Man&lt;/font&gt;&lt;/div&gt;&lt;div style=&quot;font-size: 10px&quot;&gt;&lt;font style=&quot;font-size: 10px&quot;&gt;&lt;font style=&quot;font-size: 10px&quot;&gt;OFF&lt;/font&gt;&lt;br&gt;&lt;/font&gt;&lt;/div&gt;" style="text;html=1;align=center;verticalAlign=middle;resizable=0;points=[];autosize=1;rotation=-90;" vertex="1" parent="1">
          <mxGeometry x="299.5" y="-102" width="40" height="30" as="geometry" />
        </mxCell>
        <mxCell id="4j2mSAYdcBih2xaInqb0-37" style="edgeStyle=orthogonalEdgeStyle;rounded=0;orthogonalLoop=1;jettySize=auto;html=1;exitX=0.5;exitY=1;exitDx=0;exitDy=0;entryX=0.25;entryY=1;entryDx=0;entryDy=0;" edge="1" parent="1" source="4j2mSAYdcBih2xaInqb0-38" target="4j2mSAYdcBih2xaInqb0-41">
          <mxGeometry relative="1" as="geometry" />
        </mxCell>
        <mxCell id="4j2mSAYdcBih2xaInqb0-38" value="" style="rounded=0;whiteSpace=wrap;html=1;" vertex="1" parent="1">
          <mxGeometry x="650" y="-73" width="30" height="70" as="geometry" />
        </mxCell>
        <mxCell id="4j2mSAYdcBih2xaInqb0-39" value="Автомат&lt;br&gt;&lt;div&gt;Обогрев&lt;/div&gt;" style="text;html=1;align=center;verticalAlign=middle;resizable=0;points=[];;autosize=1;rotation=-90;fontSize=8;" vertex="1" parent="1">
          <mxGeometry x="640" y="-53" width="50" height="30" as="geometry" />
        </mxCell>
        <mxCell id="4j2mSAYdcBih2xaInqb0-40" value="" style="group;fontSize=8;" vertex="1" connectable="0" parent="1">
          <mxGeometry x="742" y="-43" width="60" height="60" as="geometry" />
        </mxCell>
        <mxCell id="4j2mSAYdcBih2xaInqb0-41" value="" style="rounded=0;whiteSpace=wrap;html=1;" vertex="1" parent="4j2mSAYdcBih2xaInqb0-40">
          <mxGeometry x="6.5" width="43" height="60" as="geometry" />
        </mxCell>
        <mxCell id="4j2mSAYdcBih2xaInqb0-42" value="&lt;div style=&quot;font-size: 8px;&quot;&gt;&lt;font style=&quot;font-size: 8px;&quot;&gt;Обогрев&lt;/font&gt;&lt;/div&gt;&lt;div style=&quot;font-size: 8px;&quot;&gt;&lt;font style=&quot;font-size: 8px;&quot;&gt;Оптич.&lt;/font&gt;&lt;/div&gt;&lt;div style=&quot;font-size: 8px;&quot;&gt;&lt;font style=&quot;font-size: 8px;&quot;&gt;Реле&lt;br style=&quot;font-size: 8px;&quot;&gt;&lt;/font&gt;&lt;/div&gt;" style="text;html=1;align=center;verticalAlign=middle;resizable=0;points=[];;autosize=1;rotation=-90;fontSize=8;" vertex="1" parent="4j2mSAYdcBih2xaInqb0-40">
          <mxGeometry x="5" y="10" width="50" height="40" as="geometry" />
        </mxCell>
        <mxCell id="4j2mSAYdcBih2xaInqb0-43" value="" style="pointerEvents=1;verticalLabelPosition=bottom;shadow=0;dashed=0;align=center;html=1;verticalAlign=top;shape=mxgraph.electrical.resistors.resistor_2;rotation=90;" vertex="1" parent="1">
          <mxGeometry x="767" y="87" width="35" height="10" as="geometry" />
        </mxCell>
        <mxCell id="4j2mSAYdcBih2xaInqb0-44" style="edgeStyle=orthogonalEdgeStyle;rounded=0;orthogonalLoop=1;jettySize=auto;html=1;exitX=0.75;exitY=1;exitDx=0;exitDy=0;entryX=0;entryY=0.5;entryDx=0;entryDy=0;entryPerimeter=0;" edge="1" parent="1" source="4j2mSAYdcBih2xaInqb0-41" target="4j2mSAYdcBih2xaInqb0-43">
          <mxGeometry relative="1" as="geometry" />
        </mxCell>
        <mxCell id="4j2mSAYdcBih2xaInqb0-45" style="edgeStyle=orthogonalEdgeStyle;rounded=0;orthogonalLoop=1;jettySize=auto;html=1;entryX=1;entryY=0.43;entryDx=0;entryDy=0;entryPerimeter=0;" edge="1" parent="1" source="4j2mSAYdcBih2xaInqb0-46" target="4j2mSAYdcBih2xaInqb0-57">
          <mxGeometry relative="1" as="geometry" />
        </mxCell>
        <mxCell id="4j2mSAYdcBih2xaInqb0-46" value="&lt;div&gt;Arduino&lt;br&gt;&lt;/div&gt;&lt;div&gt;10pin&lt;/div&gt;" style="text;html=1;align=center;verticalAlign=middle;resizable=0;points=[];autosize=1;" vertex="1" parent="1">
          <mxGeometry x="728.5" y="-247" width="60" height="30" as="geometry" />
        </mxCell>
        <mxCell id="4j2mSAYdcBih2xaInqb0-47" style="edgeStyle=orthogonalEdgeStyle;rounded=0;orthogonalLoop=1;jettySize=auto;html=1;entryX=0.75;entryY=0;entryDx=0;entryDy=0;" edge="1" parent="1" source="4j2mSAYdcBih2xaInqb0-48" target="4j2mSAYdcBih2xaInqb0-41">
          <mxGeometry relative="1" as="geometry">
            <Array as="points">
              <mxPoint x="803" y="-62" />
              <mxPoint x="781" y="-62" />
            </Array>
          </mxGeometry>
        </mxCell>
        <mxCell id="4j2mSAYdcBih2xaInqb0-48" value="-5V" style="text;html=1;align=center;verticalAlign=middle;resizable=0;points=[];autosize=1;" vertex="1" parent="1">
          <mxGeometry x="788" y="-102" width="30" height="20" as="geometry" />
        </mxCell>
        <mxCell id="4j2mSAYdcBih2xaInqb0-49" value="N" style="text;html=1;align=center;verticalAlign=middle;resizable=0;points=[];autosize=1;" vertex="1" parent="1">
          <mxGeometry x="774.5" y="107" width="20" height="20" as="geometry" />
        </mxCell>
        <mxCell id="4j2mSAYdcBih2xaInqb0-50" style="edgeStyle=orthogonalEdgeStyle;rounded=0;orthogonalLoop=1;jettySize=auto;html=1;entryX=0.5;entryY=0;entryDx=0;entryDy=0;" edge="1" parent="1" source="4j2mSAYdcBih2xaInqb0-51" target="4j2mSAYdcBih2xaInqb0-38">
          <mxGeometry relative="1" as="geometry" />
        </mxCell>
        <mxCell id="4j2mSAYdcBih2xaInqb0-51" value="L" style="text;html=1;align=center;verticalAlign=middle;resizable=0;points=[];autosize=1;" vertex="1" parent="1">
          <mxGeometry x="655" y="-123" width="20" height="20" as="geometry" />
        </mxCell>
        <mxCell id="4j2mSAYdcBih2xaInqb0-52" style="edgeStyle=orthogonalEdgeStyle;rounded=0;orthogonalLoop=1;jettySize=auto;html=1;exitX=1;exitY=0.84;exitDx=0;exitDy=0;exitPerimeter=0;entryX=1;entryY=0.43;entryDx=0;entryDy=0;entryPerimeter=0;" edge="1" parent="1" source="4j2mSAYdcBih2xaInqb0-53" target="4j2mSAYdcBih2xaInqb0-57">
          <mxGeometry relative="1" as="geometry">
            <mxPoint x="757.38" y="-127" as="targetPoint" />
          </mxGeometry>
        </mxCell>
        <mxCell id="4j2mSAYdcBih2xaInqb0-53" value="" style="pointerEvents=1;verticalLabelPosition=bottom;shadow=0;dashed=0;align=center;html=1;verticalAlign=top;shape=mxgraph.electrical.electro-mechanical.simple_switch;rotation=90;" vertex="1" parent="1">
          <mxGeometry x="680.88" y="-229" width="75" height="19" as="geometry" />
        </mxCell>
        <mxCell id="4j2mSAYdcBih2xaInqb0-54" value="+5v" style="text;html=1;align=center;verticalAlign=middle;resizable=0;points=[];autosize=1;" vertex="1" parent="1">
          <mxGeometry x="697.88" y="-280" width="30" height="20" as="geometry" />
        </mxCell>
        <mxCell id="4j2mSAYdcBih2xaInqb0-55" value="&lt;div style=&quot;font-size: 10px&quot;&gt;&lt;font style=&quot;font-size: 10px&quot;&gt;Man&lt;/font&gt;&lt;/div&gt;&lt;div style=&quot;font-size: 10px&quot;&gt;&lt;font style=&quot;font-size: 10px&quot;&gt;&lt;font style=&quot;font-size: 10px&quot;&gt;ON&lt;/font&gt;&lt;br&gt;&lt;/font&gt;&lt;/div&gt;" style="text;html=1;align=center;verticalAlign=middle;resizable=0;points=[];autosize=1;rotation=-90;" vertex="1" parent="1">
          <mxGeometry x="678.38" y="-234.5" width="40" height="30" as="geometry" />
        </mxCell>
        <mxCell id="4j2mSAYdcBih2xaInqb0-56" style="edgeStyle=orthogonalEdgeStyle;rounded=0;orthogonalLoop=1;jettySize=auto;html=1;exitX=0;exitY=0.43;exitDx=0;exitDy=0;exitPerimeter=0;entryX=0.25;entryY=0;entryDx=0;entryDy=0;" edge="1" parent="1" source="4j2mSAYdcBih2xaInqb0-57" target="4j2mSAYdcBih2xaInqb0-41">
          <mxGeometry relative="1" as="geometry" />
        </mxCell>
        <mxCell id="4j2mSAYdcBih2xaInqb0-57" value="" style="pointerEvents=1;verticalLabelPosition=bottom;shadow=0;dashed=0;align=center;html=1;verticalAlign=top;shape=mxgraph.electrical.electro-mechanical.stay_put;rotation=-90;" vertex="1" parent="1">
          <mxGeometry x="721.5" y="-90.5" width="75" height="7" as="geometry" />
        </mxCell>
        <mxCell id="4j2mSAYdcBih2xaInqb0-58" value="&lt;div style=&quot;font-size: 10px&quot;&gt;&lt;font style=&quot;font-size: 10px&quot;&gt;Man&lt;/font&gt;&lt;/div&gt;&lt;div style=&quot;font-size: 10px&quot;&gt;&lt;font style=&quot;font-size: 10px&quot;&gt;&lt;font style=&quot;font-size: 10px&quot;&gt;OFF&lt;/font&gt;&lt;br&gt;&lt;/font&gt;&lt;/div&gt;" style="text;html=1;align=center;verticalAlign=middle;resizable=0;points=[];autosize=1;rotation=-90;" vertex="1" parent="1">
          <mxGeometry x="721.5" y="-102" width="40" height="30" as="geometry" />
        </mxCell>
        <mxCell id="4j2mSAYdcBih2xaInqb0-59" value="Обогреватель" style="text;html=1;align=center;verticalAlign=middle;resizable=0;points=[];autosize=1;rotation=-90;" vertex="1" parent="1">
          <mxGeometry x="753" y="87" width="100" height="20" as="geometry" />
        </mxCell>
        <mxCell id="4j2mSAYdcBih2xaInqb0-61" style="edgeStyle=orthogonalEdgeStyle;rounded=0;orthogonalLoop=1;jettySize=auto;html=1;exitX=0.5;exitY=1;exitDx=0;exitDy=0;entryX=0.25;entryY=1;entryDx=0;entryDy=0;" edge="1" parent="1" source="4j2mSAYdcBih2xaInqb0-62" target="4j2mSAYdcBih2xaInqb0-65">
          <mxGeometry relative="1" as="geometry" />
        </mxCell>
        <mxCell id="4j2mSAYdcBih2xaInqb0-62" value="" style="rounded=0;whiteSpace=wrap;html=1;" vertex="1" parent="1">
          <mxGeometry x="5" y="-73" width="30" height="70" as="geometry" />
        </mxCell>
        <mxCell id="4j2mSAYdcBih2xaInqb0-63" value="Автомат&lt;br&gt;&lt;div&gt;Вентиляция&lt;/div&gt;" style="text;html=1;align=center;verticalAlign=middle;resizable=0;points=[];;autosize=1;rotation=-90;fontSize=8;" vertex="1" parent="1">
          <mxGeometry x="-10" y="-53" width="60" height="30" as="geometry" />
        </mxCell>
        <mxCell id="4j2mSAYdcBih2xaInqb0-64" value="" style="group;fontSize=8;" vertex="1" connectable="0" parent="1">
          <mxGeometry x="97" y="-43" width="60" height="60" as="geometry" />
        </mxCell>
        <mxCell id="4j2mSAYdcBih2xaInqb0-65" value="" style="rounded=0;whiteSpace=wrap;html=1;" vertex="1" parent="4j2mSAYdcBih2xaInqb0-64">
          <mxGeometry x="6.5" width="43" height="60" as="geometry" />
        </mxCell>
        <mxCell id="4j2mSAYdcBih2xaInqb0-66" value="&lt;div style=&quot;font-size: 8px&quot;&gt;&lt;font style=&quot;font-size: 8px&quot;&gt;Вентиляция&lt;/font&gt;&lt;/div&gt;&lt;div style=&quot;font-size: 8px&quot;&gt;&lt;font style=&quot;font-size: 8px&quot;&gt;Оптич.&lt;/font&gt;&lt;/div&gt;&lt;div style=&quot;font-size: 8px&quot;&gt;&lt;font style=&quot;font-size: 8px&quot;&gt;Реле&lt;br style=&quot;font-size: 8px&quot;&gt;&lt;/font&gt;&lt;/div&gt;" style="text;html=1;align=center;verticalAlign=middle;resizable=0;points=[];;autosize=1;rotation=-90;fontSize=8;" vertex="1" parent="4j2mSAYdcBih2xaInqb0-64">
          <mxGeometry y="10" width="60" height="40" as="geometry" />
        </mxCell>
        <mxCell id="4j2mSAYdcBih2xaInqb0-67" value="" style="pointerEvents=1;verticalLabelPosition=bottom;shadow=0;dashed=0;align=center;html=1;verticalAlign=top;shape=mxgraph.electrical.resistors.resistor_2;rotation=90;" vertex="1" parent="1">
          <mxGeometry x="122" y="87" width="35" height="10" as="geometry" />
        </mxCell>
        <mxCell id="4j2mSAYdcBih2xaInqb0-68" style="edgeStyle=orthogonalEdgeStyle;rounded=0;orthogonalLoop=1;jettySize=auto;html=1;exitX=0.75;exitY=1;exitDx=0;exitDy=0;entryX=0;entryY=0.5;entryDx=0;entryDy=0;entryPerimeter=0;" edge="1" parent="1" source="4j2mSAYdcBih2xaInqb0-65" target="4j2mSAYdcBih2xaInqb0-67">
          <mxGeometry relative="1" as="geometry" />
        </mxCell>
        <mxCell id="4j2mSAYdcBih2xaInqb0-69" style="edgeStyle=orthogonalEdgeStyle;rounded=0;orthogonalLoop=1;jettySize=auto;html=1;entryX=1;entryY=0.43;entryDx=0;entryDy=0;entryPerimeter=0;" edge="1" parent="1" source="4j2mSAYdcBih2xaInqb0-70" target="4j2mSAYdcBih2xaInqb0-81">
          <mxGeometry relative="1" as="geometry" />
        </mxCell>
        <mxCell id="4j2mSAYdcBih2xaInqb0-70" value="&lt;div&gt;Arduino&lt;br&gt;&lt;/div&gt;&lt;div&gt;7pin&lt;/div&gt;" style="text;html=1;align=center;verticalAlign=middle;resizable=0;points=[];autosize=1;" vertex="1" parent="1">
          <mxGeometry x="83.5" y="-247" width="60" height="30" as="geometry" />
        </mxCell>
        <mxCell id="4j2mSAYdcBih2xaInqb0-71" style="edgeStyle=orthogonalEdgeStyle;rounded=0;orthogonalLoop=1;jettySize=auto;html=1;entryX=0.75;entryY=0;entryDx=0;entryDy=0;" edge="1" parent="1" source="4j2mSAYdcBih2xaInqb0-72" target="4j2mSAYdcBih2xaInqb0-65">
          <mxGeometry relative="1" as="geometry">
            <Array as="points">
              <mxPoint x="158" y="-62" />
              <mxPoint x="136" y="-62" />
            </Array>
          </mxGeometry>
        </mxCell>
        <mxCell id="4j2mSAYdcBih2xaInqb0-72" value="-5V" style="text;html=1;align=center;verticalAlign=middle;resizable=0;points=[];autosize=1;" vertex="1" parent="1">
          <mxGeometry x="143" y="-102" width="30" height="20" as="geometry" />
        </mxCell>
        <mxCell id="4j2mSAYdcBih2xaInqb0-73" value="N" style="text;html=1;align=center;verticalAlign=middle;resizable=0;points=[];autosize=1;" vertex="1" parent="1">
          <mxGeometry x="129.5" y="107" width="20" height="20" as="geometry" />
        </mxCell>
        <mxCell id="4j2mSAYdcBih2xaInqb0-74" style="edgeStyle=orthogonalEdgeStyle;rounded=0;orthogonalLoop=1;jettySize=auto;html=1;entryX=0.5;entryY=0;entryDx=0;entryDy=0;" edge="1" parent="1" source="4j2mSAYdcBih2xaInqb0-75" target="4j2mSAYdcBih2xaInqb0-62">
          <mxGeometry relative="1" as="geometry" />
        </mxCell>
        <mxCell id="4j2mSAYdcBih2xaInqb0-75" value="L" style="text;html=1;align=center;verticalAlign=middle;resizable=0;points=[];autosize=1;" vertex="1" parent="1">
          <mxGeometry x="10" y="-123" width="20" height="20" as="geometry" />
        </mxCell>
        <mxCell id="4j2mSAYdcBih2xaInqb0-76" style="edgeStyle=orthogonalEdgeStyle;rounded=0;orthogonalLoop=1;jettySize=auto;html=1;exitX=1;exitY=0.84;exitDx=0;exitDy=0;exitPerimeter=0;entryX=1;entryY=0.43;entryDx=0;entryDy=0;entryPerimeter=0;" edge="1" parent="1" source="4j2mSAYdcBih2xaInqb0-77" target="4j2mSAYdcBih2xaInqb0-81">
          <mxGeometry relative="1" as="geometry">
            <mxPoint x="112.38" y="-127" as="targetPoint" />
          </mxGeometry>
        </mxCell>
        <mxCell id="4j2mSAYdcBih2xaInqb0-77" value="" style="pointerEvents=1;verticalLabelPosition=bottom;shadow=0;dashed=0;align=center;html=1;verticalAlign=top;shape=mxgraph.electrical.electro-mechanical.simple_switch;rotation=90;" vertex="1" parent="1">
          <mxGeometry x="35.879999999999995" y="-229" width="75" height="19" as="geometry" />
        </mxCell>
        <mxCell id="4j2mSAYdcBih2xaInqb0-78" value="+5v" style="text;html=1;align=center;verticalAlign=middle;resizable=0;points=[];autosize=1;" vertex="1" parent="1">
          <mxGeometry x="52.879999999999995" y="-280" width="30" height="20" as="geometry" />
        </mxCell>
        <mxCell id="4j2mSAYdcBih2xaInqb0-79" value="&lt;div style=&quot;font-size: 10px&quot;&gt;&lt;font style=&quot;font-size: 10px&quot;&gt;Man&lt;/font&gt;&lt;/div&gt;&lt;div style=&quot;font-size: 10px&quot;&gt;&lt;font style=&quot;font-size: 10px&quot;&gt;&lt;font style=&quot;font-size: 10px&quot;&gt;ON&lt;/font&gt;&lt;br&gt;&lt;/font&gt;&lt;/div&gt;" style="text;html=1;align=center;verticalAlign=middle;resizable=0;points=[];autosize=1;rotation=-90;" vertex="1" parent="1">
          <mxGeometry x="33.379999999999995" y="-234.5" width="40" height="30" as="geometry" />
        </mxCell>
        <mxCell id="4j2mSAYdcBih2xaInqb0-80" style="edgeStyle=orthogonalEdgeStyle;rounded=0;orthogonalLoop=1;jettySize=auto;html=1;exitX=0;exitY=0.43;exitDx=0;exitDy=0;exitPerimeter=0;entryX=0.25;entryY=0;entryDx=0;entryDy=0;" edge="1" parent="1" source="4j2mSAYdcBih2xaInqb0-81" target="4j2mSAYdcBih2xaInqb0-65">
          <mxGeometry relative="1" as="geometry" />
        </mxCell>
        <mxCell id="4j2mSAYdcBih2xaInqb0-81" value="" style="pointerEvents=1;verticalLabelPosition=bottom;shadow=0;dashed=0;align=center;html=1;verticalAlign=top;shape=mxgraph.electrical.electro-mechanical.stay_put;rotation=-90;" vertex="1" parent="1">
          <mxGeometry x="76.5" y="-90.5" width="75" height="7" as="geometry" />
        </mxCell>
        <mxCell id="4j2mSAYdcBih2xaInqb0-82" value="&lt;div style=&quot;font-size: 10px&quot;&gt;&lt;font style=&quot;font-size: 10px&quot;&gt;Man&lt;/font&gt;&lt;/div&gt;&lt;div style=&quot;font-size: 10px&quot;&gt;&lt;font style=&quot;font-size: 10px&quot;&gt;&lt;font style=&quot;font-size: 10px&quot;&gt;OFF&lt;/font&gt;&lt;br&gt;&lt;/font&gt;&lt;/div&gt;" style="text;html=1;align=center;verticalAlign=middle;resizable=0;points=[];autosize=1;rotation=-90;" vertex="1" parent="1">
          <mxGeometry x="76.5" y="-102" width="40" height="30" as="geometry" />
        </mxCell>
        <mxCell id="4j2mSAYdcBih2xaInqb0-83" value="Вытяжка" style="text;html=1;align=center;verticalAlign=middle;resizable=0;points=[];autosize=1;rotation=-90;" vertex="1" parent="1">
          <mxGeometry x="123" y="87" width="70" height="20" as="geometry" />
        </mxCell>
        <mxCell id="4j2mSAYdcBih2xaInqb0-98" style="edgeStyle=orthogonalEdgeStyle;rounded=0;orthogonalLoop=1;jettySize=auto;html=1;exitX=0;exitY=1;exitDx=0;exitDy=0;exitPerimeter=0;entryX=0;entryY=0.5;entryDx=0;entryDy=0;entryPerimeter=0;" edge="1" parent="1" source="4j2mSAYdcBih2xaInqb0-84" target="4j2mSAYdcBih2xaInqb0-95">
          <mxGeometry relative="1" as="geometry">
            <Array as="points">
              <mxPoint x="385" y="47" />
              <mxPoint x="351" y="47" />
              <mxPoint x="351" y="70" />
            </Array>
          </mxGeometry>
        </mxCell>
        <mxCell id="4j2mSAYdcBih2xaInqb0-84" value="" style="pointerEvents=1;verticalLabelPosition=bottom;shadow=0;dashed=0;align=center;html=1;verticalAlign=top;shape=mxgraph.electrical.electro-mechanical.changeover_contact;rotation=-180;" vertex="1" parent="1">
          <mxGeometry x="309.5" y="27" width="75" height="22.5" as="geometry" />
        </mxCell>
        <mxCell id="4j2mSAYdcBih2xaInqb0-94" style="edgeStyle=orthogonalEdgeStyle;rounded=0;orthogonalLoop=1;jettySize=auto;html=1;entryX=0.51;entryY=0.511;entryDx=0;entryDy=0;entryPerimeter=0;dashed=1;" edge="1" parent="1" source="4j2mSAYdcBih2xaInqb0-85" target="4j2mSAYdcBih2xaInqb0-84">
          <mxGeometry relative="1" as="geometry" />
        </mxCell>
        <mxCell id="4j2mSAYdcBih2xaInqb0-85" value="" style="pointerEvents=1;verticalLabelPosition=bottom;shadow=0;dashed=0;align=center;html=1;verticalAlign=top;shape=mxgraph.electrical.electro-mechanical.relay_coil;rotation=-90;" vertex="1" parent="1">
          <mxGeometry x="327" y="-23" width="39.5" height="25" as="geometry" />
        </mxCell>
        <mxCell id="4j2mSAYdcBih2xaInqb0-87" value="К1" style="text;html=1;align=center;verticalAlign=middle;resizable=0;points=[];autosize=1;" vertex="1" parent="1">
          <mxGeometry x="331.88" y="-23" width="30" height="20" as="geometry" />
        </mxCell>
        <mxCell id="4j2mSAYdcBih2xaInqb0-95" value="" style="pointerEvents=1;verticalLabelPosition=bottom;shadow=0;dashed=0;align=center;html=1;verticalAlign=top;shape=mxgraph.electrical.resistors.resistor_2;rotation=90;" vertex="1" parent="1">
          <mxGeometry x="333.88" y="87" width="35" height="10" as="geometry" />
        </mxCell>
        <mxCell id="4j2mSAYdcBih2xaInqb0-96" value="N" style="text;html=1;align=center;verticalAlign=middle;resizable=0;points=[];autosize=1;" vertex="1" parent="1">
          <mxGeometry x="341.38" y="107" width="20" height="20" as="geometry" />
        </mxCell>
        <mxCell id="4j2mSAYdcBih2xaInqb0-97" value="&lt;div&gt;Освещение&lt;/div&gt;" style="text;html=1;align=center;verticalAlign=middle;resizable=0;points=[];autosize=1;rotation=-90;" vertex="1" parent="1">
          <mxGeometry x="329.88" y="87" width="80" height="20" as="geometry" />
        </mxCell>
        <mxCell id="4j2mSAYdcBih2xaInqb0-125" style="edgeStyle=orthogonalEdgeStyle;rounded=0;orthogonalLoop=1;jettySize=auto;html=1;entryX=1;entryY=0.43;entryDx=0;entryDy=0;entryPerimeter=0;" edge="1" parent="1" source="4j2mSAYdcBih2xaInqb0-126" target="4j2mSAYdcBih2xaInqb0-136">
          <mxGeometry relative="1" as="geometry" />
        </mxCell>
        <mxCell id="4j2mSAYdcBih2xaInqb0-126" value="&lt;div&gt;Arduino&lt;br&gt;&lt;/div&gt;&lt;div&gt;14pin&lt;/div&gt;" style="text;html=1;align=center;verticalAlign=middle;resizable=0;points=[];autosize=1;" vertex="1" parent="1">
          <mxGeometry x="946.5" y="-247" width="60" height="30" as="geometry" />
        </mxCell>
        <mxCell id="4j2mSAYdcBih2xaInqb0-127" style="edgeStyle=orthogonalEdgeStyle;rounded=0;orthogonalLoop=1;jettySize=auto;html=1;entryX=0.5;entryY=1;entryDx=0;entryDy=0;entryPerimeter=0;" edge="1" parent="1" source="4j2mSAYdcBih2xaInqb0-128" target="4j2mSAYdcBih2xaInqb0-141">
          <mxGeometry relative="1" as="geometry">
            <mxPoint x="998.75" y="-43.00000000000023" as="targetPoint" />
            <Array as="points">
              <mxPoint x="1021" y="-62" />
              <mxPoint x="999" y="-62" />
            </Array>
          </mxGeometry>
        </mxCell>
        <mxCell id="4j2mSAYdcBih2xaInqb0-128" value="-5V" style="text;html=1;align=center;verticalAlign=middle;resizable=0;points=[];autosize=1;" vertex="1" parent="1">
          <mxGeometry x="1006" y="-102" width="30" height="20" as="geometry" />
        </mxCell>
        <mxCell id="4j2mSAYdcBih2xaInqb0-131" style="edgeStyle=orthogonalEdgeStyle;rounded=0;orthogonalLoop=1;jettySize=auto;html=1;exitX=1;exitY=0.84;exitDx=0;exitDy=0;exitPerimeter=0;entryX=1;entryY=0.43;entryDx=0;entryDy=0;entryPerimeter=0;" edge="1" parent="1" source="4j2mSAYdcBih2xaInqb0-132" target="4j2mSAYdcBih2xaInqb0-136">
          <mxGeometry relative="1" as="geometry">
            <mxPoint x="975.38" y="-127" as="targetPoint" />
          </mxGeometry>
        </mxCell>
        <mxCell id="4j2mSAYdcBih2xaInqb0-132" value="" style="pointerEvents=1;verticalLabelPosition=bottom;shadow=0;dashed=0;align=center;html=1;verticalAlign=top;shape=mxgraph.electrical.electro-mechanical.simple_switch;rotation=90;" vertex="1" parent="1">
          <mxGeometry x="898.88" y="-229" width="75" height="19" as="geometry" />
        </mxCell>
        <mxCell id="4j2mSAYdcBih2xaInqb0-133" value="+5v" style="text;html=1;align=center;verticalAlign=middle;resizable=0;points=[];autosize=1;" vertex="1" parent="1">
          <mxGeometry x="915.88" y="-280" width="30" height="20" as="geometry" />
        </mxCell>
        <mxCell id="4j2mSAYdcBih2xaInqb0-134" value="&lt;div style=&quot;font-size: 10px&quot;&gt;&lt;font style=&quot;font-size: 10px&quot;&gt;Man&lt;/font&gt;&lt;/div&gt;&lt;div style=&quot;font-size: 10px&quot;&gt;&lt;font style=&quot;font-size: 10px&quot;&gt;&lt;font style=&quot;font-size: 10px&quot;&gt;ON&lt;/font&gt;&lt;br&gt;&lt;/font&gt;&lt;/div&gt;" style="text;html=1;align=center;verticalAlign=middle;resizable=0;points=[];autosize=1;rotation=-90;" vertex="1" parent="1">
          <mxGeometry x="896.38" y="-234.5" width="40" height="30" as="geometry" />
        </mxCell>
        <mxCell id="4j2mSAYdcBih2xaInqb0-135" style="edgeStyle=orthogonalEdgeStyle;rounded=0;orthogonalLoop=1;jettySize=auto;html=1;exitX=0;exitY=0.43;exitDx=0;exitDy=0;exitPerimeter=0;entryX=0.5;entryY=0;entryDx=0;entryDy=0;entryPerimeter=0;" edge="1" parent="1" source="4j2mSAYdcBih2xaInqb0-136" target="4j2mSAYdcBih2xaInqb0-141">
          <mxGeometry relative="1" as="geometry" />
        </mxCell>
        <mxCell id="4j2mSAYdcBih2xaInqb0-136" value="" style="pointerEvents=1;verticalLabelPosition=bottom;shadow=0;dashed=0;align=center;html=1;verticalAlign=top;shape=mxgraph.electrical.electro-mechanical.stay_put;rotation=-90;" vertex="1" parent="1">
          <mxGeometry x="939.5" y="-90.5" width="75" height="7" as="geometry" />
        </mxCell>
        <mxCell id="4j2mSAYdcBih2xaInqb0-137" value="&lt;div style=&quot;font-size: 10px&quot;&gt;&lt;font style=&quot;font-size: 10px&quot;&gt;Man&lt;/font&gt;&lt;/div&gt;&lt;div style=&quot;font-size: 10px&quot;&gt;&lt;font style=&quot;font-size: 10px&quot;&gt;&lt;font style=&quot;font-size: 10px&quot;&gt;OFF&lt;/font&gt;&lt;br&gt;&lt;/font&gt;&lt;/div&gt;" style="text;html=1;align=center;verticalAlign=middle;resizable=0;points=[];autosize=1;rotation=-90;" vertex="1" parent="1">
          <mxGeometry x="939.5" y="-102" width="40" height="30" as="geometry" />
        </mxCell>
        <mxCell id="4j2mSAYdcBih2xaInqb0-164" style="edgeStyle=orthogonalEdgeStyle;rounded=0;orthogonalLoop=1;jettySize=auto;html=1;exitX=0;exitY=1;exitDx=0;exitDy=0;exitPerimeter=0;entryX=0.5;entryY=0;entryDx=0;entryDy=0;entryPerimeter=0;endArrow=classicThin;endFill=1;" edge="1" parent="1" source="4j2mSAYdcBih2xaInqb0-139" target="4j2mSAYdcBih2xaInqb0-160">
          <mxGeometry relative="1" as="geometry" />
        </mxCell>
        <mxCell id="4j2mSAYdcBih2xaInqb0-139" value="" style="pointerEvents=1;verticalLabelPosition=bottom;shadow=0;dashed=0;align=center;html=1;verticalAlign=top;shape=mxgraph.electrical.electro-mechanical.changeover_contact;rotation=-180;" vertex="1" parent="1">
          <mxGeometry x="949.5" y="27" width="75" height="22.5" as="geometry" />
        </mxCell>
        <mxCell id="4j2mSAYdcBih2xaInqb0-140" style="edgeStyle=orthogonalEdgeStyle;rounded=0;orthogonalLoop=1;jettySize=auto;html=1;entryX=0.51;entryY=0.511;entryDx=0;entryDy=0;entryPerimeter=0;dashed=1;" edge="1" parent="1" source="4j2mSAYdcBih2xaInqb0-141" target="4j2mSAYdcBih2xaInqb0-139">
          <mxGeometry relative="1" as="geometry" />
        </mxCell>
        <mxCell id="4j2mSAYdcBih2xaInqb0-141" value="" style="pointerEvents=1;verticalLabelPosition=bottom;shadow=0;dashed=0;align=center;html=1;verticalAlign=top;shape=mxgraph.electrical.electro-mechanical.relay_coil;rotation=-90;" vertex="1" parent="1">
          <mxGeometry x="967" y="-23" width="39.5" height="25" as="geometry" />
        </mxCell>
        <mxCell id="4j2mSAYdcBih2xaInqb0-142" value="К2" style="text;html=1;align=center;verticalAlign=middle;resizable=0;points=[];autosize=1;" vertex="1" parent="1">
          <mxGeometry x="971.38" y="-18" width="30" height="20" as="geometry" />
        </mxCell>
        <mxCell id="4j2mSAYdcBih2xaInqb0-167" style="edgeStyle=orthogonalEdgeStyle;rounded=0;orthogonalLoop=1;jettySize=auto;html=1;exitX=0;exitY=1;exitDx=0;exitDy=0;exitPerimeter=0;entryX=0.018;entryY=0.684;entryDx=0;entryDy=0;entryPerimeter=0;endArrow=classicThin;endFill=1;" edge="1" parent="1" source="4j2mSAYdcBih2xaInqb0-146" target="4j2mSAYdcBih2xaInqb0-166">
          <mxGeometry relative="1" as="geometry" />
        </mxCell>
        <mxCell id="4j2mSAYdcBih2xaInqb0-146" value="" style="pointerEvents=1;verticalLabelPosition=bottom;shadow=0;dashed=0;align=center;html=1;verticalAlign=top;shape=mxgraph.electrical.electro-mechanical.changeover_contact;rotation=-90;" vertex="1" parent="1">
          <mxGeometry x="1056.5" y="34" width="75" height="22.5" as="geometry" />
        </mxCell>
        <mxCell id="4j2mSAYdcBih2xaInqb0-168" style="edgeStyle=orthogonalEdgeStyle;rounded=0;orthogonalLoop=1;jettySize=auto;html=1;exitX=0;exitY=1;exitDx=0;exitDy=0;exitPerimeter=0;entryX=0.998;entryY=0.705;entryDx=0;entryDy=0;entryPerimeter=0;endArrow=classicThin;endFill=1;" edge="1" parent="1" source="4j2mSAYdcBih2xaInqb0-147" target="4j2mSAYdcBih2xaInqb0-166">
          <mxGeometry relative="1" as="geometry" />
        </mxCell>
        <mxCell id="4j2mSAYdcBih2xaInqb0-147" value="" style="pointerEvents=1;verticalLabelPosition=bottom;shadow=0;dashed=0;align=center;html=1;verticalAlign=top;shape=mxgraph.electrical.electro-mechanical.changeover_contact;rotation=-90;" vertex="1" parent="1">
          <mxGeometry x="1106.5" y="34" width="75" height="22.5" as="geometry" />
        </mxCell>
        <mxCell id="4j2mSAYdcBih2xaInqb0-148" value="+12v" style="text;html=1;align=center;verticalAlign=middle;resizable=0;points=[];autosize=1;" vertex="1" parent="1">
          <mxGeometry x="1048.5" y="-18" width="40" height="20" as="geometry" />
        </mxCell>
        <mxCell id="4j2mSAYdcBih2xaInqb0-150" value="-12v" style="text;html=1;align=center;verticalAlign=middle;resizable=0;points=[];autosize=1;" vertex="1" parent="1">
          <mxGeometry x="1078.5" y="-18" width="40" height="20" as="geometry" />
        </mxCell>
        <mxCell id="4j2mSAYdcBih2xaInqb0-151" value="-12v" style="text;html=1;align=center;verticalAlign=middle;resizable=0;points=[];autosize=1;" vertex="1" parent="1">
          <mxGeometry x="1111.5" y="-18" width="40" height="20" as="geometry" />
        </mxCell>
        <mxCell id="4j2mSAYdcBih2xaInqb0-152" value="+12v" style="text;html=1;align=center;verticalAlign=middle;resizable=0;points=[];autosize=1;" vertex="1" parent="1">
          <mxGeometry x="1141.5" y="-18" width="40" height="20" as="geometry" />
        </mxCell>
        <mxCell id="4j2mSAYdcBih2xaInqb0-154" value="&lt;div&gt;5&lt;/div&gt;" style="text;html=1;align=center;verticalAlign=middle;resizable=0;points=[];autosize=1;" vertex="1" parent="1">
          <mxGeometry x="1091.5" y="2" width="20" height="20" as="geometry" />
        </mxCell>
        <mxCell id="4j2mSAYdcBih2xaInqb0-155" value="8" style="text;html=1;align=center;verticalAlign=middle;resizable=0;points=[];autosize=1;" vertex="1" parent="1">
          <mxGeometry x="1141.5" y="2" width="20" height="20" as="geometry" />
        </mxCell>
        <mxCell id="4j2mSAYdcBih2xaInqb0-156" value="9" style="text;html=1;align=center;verticalAlign=middle;resizable=0;points=[];autosize=1;" vertex="1" parent="1">
          <mxGeometry x="1078.5" y="67" width="20" height="20" as="geometry" />
        </mxCell>
        <mxCell id="4j2mSAYdcBih2xaInqb0-157" value="12" style="text;html=1;align=center;verticalAlign=middle;resizable=0;points=[];autosize=1;" vertex="1" parent="1">
          <mxGeometry x="1121.5" y="67" width="30" height="20" as="geometry" />
        </mxCell>
        <mxCell id="4j2mSAYdcBih2xaInqb0-158" value="1" style="text;html=1;align=center;verticalAlign=middle;resizable=0;points=[];autosize=1;" vertex="1" parent="1">
          <mxGeometry x="1066.5" y="2" width="20" height="20" as="geometry" />
        </mxCell>
        <mxCell id="4j2mSAYdcBih2xaInqb0-159" value="4" style="text;html=1;align=center;verticalAlign=middle;resizable=0;points=[];autosize=1;" vertex="1" parent="1">
          <mxGeometry x="1118.5" y="2" width="20" height="20" as="geometry" />
        </mxCell>
        <mxCell id="4j2mSAYdcBih2xaInqb0-160" value="" style="pointerEvents=1;verticalLabelPosition=bottom;shadow=0;dashed=0;align=center;html=1;verticalAlign=top;shape=mxgraph.electrical.electro-mechanical.relay_coil;rotation=0;" vertex="1" parent="1">
          <mxGeometry x="1027" y="38.5" width="39.5" height="25" as="geometry" />
        </mxCell>
        <mxCell id="4j2mSAYdcBih2xaInqb0-162" style="edgeStyle=orthogonalEdgeStyle;rounded=0;orthogonalLoop=1;jettySize=auto;html=1;entryX=0.421;entryY=0.674;entryDx=0;entryDy=0;entryPerimeter=0;dashed=1;endArrow=none;endFill=0;exitX=1.115;exitY=0.483;exitDx=0;exitDy=0;exitPerimeter=0;" edge="1" parent="1" source="4j2mSAYdcBih2xaInqb0-161" target="4j2mSAYdcBih2xaInqb0-147">
          <mxGeometry relative="1" as="geometry" />
        </mxCell>
        <mxCell id="4j2mSAYdcBih2xaInqb0-161" value="К" style="text;html=1;align=center;verticalAlign=middle;resizable=0;points=[];autosize=1;" vertex="1" parent="1">
          <mxGeometry x="1036.75" y="41" width="20" height="20" as="geometry" />
        </mxCell>
        <mxCell id="4j2mSAYdcBih2xaInqb0-163" value="+12v" style="text;html=1;align=center;verticalAlign=middle;resizable=0;points=[];autosize=1;" vertex="1" parent="1">
          <mxGeometry x="915.88" y="17" width="40" height="20" as="geometry" />
        </mxCell>
        <mxCell id="4j2mSAYdcBih2xaInqb0-165" value="-12v" style="text;html=1;align=center;verticalAlign=middle;resizable=0;points=[];autosize=1;" vertex="1" parent="1">
          <mxGeometry x="1027" y="67" width="40" height="20" as="geometry" />
        </mxCell>
        <mxCell id="4j2mSAYdcBih2xaInqb0-166" value="" style="verticalLabelPosition=bottom;align=center;html=1;verticalAlign=top;pointerEvents=1;dashed=0;shape=mxgraph.pid2valves.valve;valveType=gate;actuator=motor" vertex="1" parent="1">
          <mxGeometry x="1113.5" y="100.5" width="38" height="33" as="geometry" />
        </mxCell>
        <mxCell id="4j2mSAYdcBih2xaInqb0-169" value="Форточки" style="text;html=1;align=center;verticalAlign=middle;resizable=0;points=[];autosize=1;" vertex="1" parent="1">
          <mxGeometry x="1092" y="139" width="70" height="20" as="geometry" />
        </mxCell>
        <mxCell id="4j2mSAYdcBih2xaInqb0-172" value="MY2NJ HH52P" style="text;html=1;align=center;verticalAlign=middle;resizable=0;points=[];autosize=1;" vertex="1" parent="1">
          <mxGeometry x="1056.5" y="-48" width="100" height="20" as="geometry" />
        </mxCell>
        <mxCell id="4j2mSAYdcBih2xaInqb0-173" value="&lt;div&gt;14&lt;/div&gt;" style="text;html=1;align=center;verticalAlign=middle;resizable=0;points=[];autosize=1;" vertex="1" parent="1">
          <mxGeometry x="1021.5" y="10" width="30" height="20" as="geometry" />
        </mxCell>
        <mxCell id="4j2mSAYdcBih2xaInqb0-174" value="&lt;div&gt;13&lt;/div&gt;" style="text;html=1;align=center;verticalAlign=middle;resizable=0;points=[];autosize=1;" vertex="1" parent="1">
          <mxGeometry x="1021.5" y="56.5" width="30" height="20" as="geometry" />
        </mxCell>
        <mxCell id="4j2mSAYdcBih2xaInqb0-175" value="" style="group;fontSize=8;" vertex="1" connectable="0" parent="1">
          <mxGeometry x="510" y="304" width="75" height="80" as="geometry" />
        </mxCell>
        <mxCell id="4j2mSAYdcBih2xaInqb0-176" value="" style="rounded=0;whiteSpace=wrap;html=1;" vertex="1" parent="4j2mSAYdcBih2xaInqb0-175">
          <mxGeometry x="7.5" width="49.61538461538461" height="80" as="geometry" />
        </mxCell>
        <mxCell id="4j2mSAYdcBih2xaInqb0-177" value="&lt;div&gt;Блок питания&lt;/div&gt;&lt;div&gt;12v&lt;br&gt;&lt;/div&gt;" style="text;html=1;align=center;verticalAlign=middle;resizable=0;points=[];;autosize=1;rotation=-90;fontSize=8;" vertex="1" parent="4j2mSAYdcBih2xaInqb0-175">
          <mxGeometry x="5.230769230769231" y="25" width="60" height="30" as="geometry" />
        </mxCell>
        <mxCell id="4j2mSAYdcBih2xaInqb0-178" value="" style="rounded=0;whiteSpace=wrap;html=1;" vertex="1" parent="1">
          <mxGeometry x="587" y="436.88" width="30" height="70" as="geometry" />
        </mxCell>
        <mxCell id="4j2mSAYdcBih2xaInqb0-179" value="&lt;div&gt;Реле&lt;/div&gt;&lt;div&gt;форточки K &lt;br&gt;&lt;/div&gt;&lt;div&gt;MY2NJ HH52P&lt;br&gt;&lt;/div&gt;" style="text;html=1;align=center;verticalAlign=middle;resizable=0;points=[];;autosize=1;rotation=-90;fontSize=8;" vertex="1" parent="1">
          <mxGeometry x="567" y="451.88" width="70" height="40" as="geometry" />
        </mxCell>
        <mxCell id="4j2mSAYdcBih2xaInqb0-180" value="&lt;div style=&quot;font-size: 8px&quot;&gt;&lt;font style=&quot;font-size: 8px&quot;&gt;Реле&lt;/font&gt;&lt;/div&gt;&lt;div style=&quot;font-size: 8px&quot;&gt;&lt;font style=&quot;font-size: 8px&quot;&gt;Форточки&lt;/font&gt;&lt;/div&gt;&lt;div style=&quot;font-size: 8px&quot;&gt;&lt;font style=&quot;font-size: 8px&quot;&gt;К3&lt;/font&gt;&lt;br&gt;&lt;/div&gt;" style="rounded=0;whiteSpace=wrap;html=1;rotation=-90;" vertex="1" parent="1">
          <mxGeometry x="502" y="457.51" width="40" height="30" as="geometry" />
        </mxCell>
        <mxCell id="4j2mSAYdcBih2xaInqb0-181" value="&lt;div style=&quot;font-size: 8px&quot;&gt;&lt;font style=&quot;font-size: 8px&quot;&gt;Реле&lt;/font&gt;&lt;/div&gt;&lt;div style=&quot;font-size: 8px&quot;&gt;&lt;font style=&quot;font-size: 8px&quot;&gt;К4&lt;/font&gt;&lt;br&gt;&lt;/div&gt;" style="rounded=0;whiteSpace=wrap;html=1;rotation=-90;" vertex="1" parent="1">
          <mxGeometry x="539" y="457.51" width="40" height="30" as="geometry" />
        </mxCell>
        <mxCell id="4j2mSAYdcBih2xaInqb0-182" style="edgeStyle=orthogonalEdgeStyle;rounded=0;orthogonalLoop=1;jettySize=auto;html=1;exitX=0.5;exitY=1;exitDx=0;exitDy=0;entryX=1;entryY=1;entryDx=0;entryDy=0;entryPerimeter=0;" edge="1" parent="1" source="4j2mSAYdcBih2xaInqb0-183" target="4j2mSAYdcBih2xaInqb0-199">
          <mxGeometry relative="1" as="geometry">
            <Array as="points">
              <mxPoint x="449.5" y="27" />
            </Array>
          </mxGeometry>
        </mxCell>
        <mxCell id="4j2mSAYdcBih2xaInqb0-183" value="" style="rounded=0;whiteSpace=wrap;html=1;" vertex="1" parent="1">
          <mxGeometry x="434.5" y="-73" width="30" height="70" as="geometry" />
        </mxCell>
        <mxCell id="4j2mSAYdcBih2xaInqb0-184" value="Автомат&lt;br&gt;&lt;div&gt;Освещение&lt;/div&gt;" style="text;html=1;align=center;verticalAlign=middle;resizable=0;points=[];;autosize=1;rotation=-90;fontSize=8;" vertex="1" parent="1">
          <mxGeometry x="419.5" y="-53" width="60" height="30" as="geometry" />
        </mxCell>
        <mxCell id="4j2mSAYdcBih2xaInqb0-185" style="edgeStyle=orthogonalEdgeStyle;rounded=0;orthogonalLoop=1;jettySize=auto;html=1;entryX=1;entryY=0.43;entryDx=0;entryDy=0;entryPerimeter=0;" edge="1" parent="1" source="4j2mSAYdcBih2xaInqb0-186" target="4j2mSAYdcBih2xaInqb0-196">
          <mxGeometry relative="1" as="geometry" />
        </mxCell>
        <mxCell id="4j2mSAYdcBih2xaInqb0-186" value="&lt;div&gt;Arduino&lt;br&gt;&lt;/div&gt;&lt;div&gt;9pin&lt;/div&gt;" style="text;html=1;align=center;verticalAlign=middle;resizable=0;points=[];autosize=1;" vertex="1" parent="1">
          <mxGeometry x="513" y="-247" width="60" height="30" as="geometry" />
        </mxCell>
        <mxCell id="4j2mSAYdcBih2xaInqb0-187" style="edgeStyle=orthogonalEdgeStyle;rounded=0;orthogonalLoop=1;jettySize=auto;html=1;entryX=0.5;entryY=1;entryDx=0;entryDy=0;entryPerimeter=0;" edge="1" parent="1" source="4j2mSAYdcBih2xaInqb0-188" target="4j2mSAYdcBih2xaInqb0-201">
          <mxGeometry relative="1" as="geometry">
            <mxPoint x="565.25" y="-43.00000000000023" as="targetPoint" />
            <Array as="points">
              <mxPoint x="587.5" y="-62" />
              <mxPoint x="565.5" y="-62" />
            </Array>
          </mxGeometry>
        </mxCell>
        <mxCell id="4j2mSAYdcBih2xaInqb0-188" value="-5V" style="text;html=1;align=center;verticalAlign=middle;resizable=0;points=[];autosize=1;" vertex="1" parent="1">
          <mxGeometry x="572.5" y="-102" width="30" height="20" as="geometry" />
        </mxCell>
        <mxCell id="4j2mSAYdcBih2xaInqb0-189" style="edgeStyle=orthogonalEdgeStyle;rounded=0;orthogonalLoop=1;jettySize=auto;html=1;entryX=0.5;entryY=0;entryDx=0;entryDy=0;" edge="1" parent="1" source="4j2mSAYdcBih2xaInqb0-190" target="4j2mSAYdcBih2xaInqb0-183">
          <mxGeometry relative="1" as="geometry" />
        </mxCell>
        <mxCell id="4j2mSAYdcBih2xaInqb0-190" value="L" style="text;html=1;align=center;verticalAlign=middle;resizable=0;points=[];autosize=1;" vertex="1" parent="1">
          <mxGeometry x="439.5" y="-123" width="20" height="20" as="geometry" />
        </mxCell>
        <mxCell id="4j2mSAYdcBih2xaInqb0-191" style="edgeStyle=orthogonalEdgeStyle;rounded=0;orthogonalLoop=1;jettySize=auto;html=1;exitX=1;exitY=0.84;exitDx=0;exitDy=0;exitPerimeter=0;entryX=1;entryY=0.43;entryDx=0;entryDy=0;entryPerimeter=0;" edge="1" parent="1" source="4j2mSAYdcBih2xaInqb0-192" target="4j2mSAYdcBih2xaInqb0-196">
          <mxGeometry relative="1" as="geometry">
            <mxPoint x="541.88" y="-127" as="targetPoint" />
          </mxGeometry>
        </mxCell>
        <mxCell id="4j2mSAYdcBih2xaInqb0-192" value="" style="pointerEvents=1;verticalLabelPosition=bottom;shadow=0;dashed=0;align=center;html=1;verticalAlign=top;shape=mxgraph.electrical.electro-mechanical.simple_switch;rotation=90;" vertex="1" parent="1">
          <mxGeometry x="465.38" y="-229" width="75" height="19" as="geometry" />
        </mxCell>
        <mxCell id="4j2mSAYdcBih2xaInqb0-193" value="+5v" style="text;html=1;align=center;verticalAlign=middle;resizable=0;points=[];autosize=1;" vertex="1" parent="1">
          <mxGeometry x="482.38" y="-280" width="30" height="20" as="geometry" />
        </mxCell>
        <mxCell id="4j2mSAYdcBih2xaInqb0-194" value="&lt;div style=&quot;font-size: 10px&quot;&gt;&lt;font style=&quot;font-size: 10px&quot;&gt;Man&lt;/font&gt;&lt;/div&gt;&lt;div style=&quot;font-size: 10px&quot;&gt;&lt;font style=&quot;font-size: 10px&quot;&gt;&lt;font style=&quot;font-size: 10px&quot;&gt;ON&lt;/font&gt;&lt;br&gt;&lt;/font&gt;&lt;/div&gt;" style="text;html=1;align=center;verticalAlign=middle;resizable=0;points=[];autosize=1;rotation=-90;" vertex="1" parent="1">
          <mxGeometry x="462.88" y="-234.5" width="40" height="30" as="geometry" />
        </mxCell>
        <mxCell id="4j2mSAYdcBih2xaInqb0-195" style="edgeStyle=orthogonalEdgeStyle;rounded=0;orthogonalLoop=1;jettySize=auto;html=1;exitX=0;exitY=0.43;exitDx=0;exitDy=0;exitPerimeter=0;entryX=0.5;entryY=0;entryDx=0;entryDy=0;entryPerimeter=0;" edge="1" parent="1" source="4j2mSAYdcBih2xaInqb0-196" target="4j2mSAYdcBih2xaInqb0-201">
          <mxGeometry relative="1" as="geometry" />
        </mxCell>
        <mxCell id="4j2mSAYdcBih2xaInqb0-196" value="" style="pointerEvents=1;verticalLabelPosition=bottom;shadow=0;dashed=0;align=center;html=1;verticalAlign=top;shape=mxgraph.electrical.electro-mechanical.stay_put;rotation=-90;" vertex="1" parent="1">
          <mxGeometry x="506" y="-90.5" width="75" height="7" as="geometry" />
        </mxCell>
        <mxCell id="4j2mSAYdcBih2xaInqb0-197" value="&lt;div style=&quot;font-size: 10px&quot;&gt;&lt;font style=&quot;font-size: 10px&quot;&gt;Man&lt;/font&gt;&lt;/div&gt;&lt;div style=&quot;font-size: 10px&quot;&gt;&lt;font style=&quot;font-size: 10px&quot;&gt;&lt;font style=&quot;font-size: 10px&quot;&gt;OFF&lt;/font&gt;&lt;br&gt;&lt;/font&gt;&lt;/div&gt;" style="text;html=1;align=center;verticalAlign=middle;resizable=0;points=[];autosize=1;rotation=-90;" vertex="1" parent="1">
          <mxGeometry x="506" y="-102" width="40" height="30" as="geometry" />
        </mxCell>
        <mxCell id="4j2mSAYdcBih2xaInqb0-198" style="edgeStyle=orthogonalEdgeStyle;rounded=0;orthogonalLoop=1;jettySize=auto;html=1;exitX=0;exitY=1;exitDx=0;exitDy=0;exitPerimeter=0;entryX=0;entryY=0.5;entryDx=0;entryDy=0;entryPerimeter=0;" edge="1" parent="1" source="4j2mSAYdcBih2xaInqb0-199" target="4j2mSAYdcBih2xaInqb0-203">
          <mxGeometry relative="1" as="geometry">
            <Array as="points">
              <mxPoint x="591.5" y="47" />
              <mxPoint x="557.5" y="47" />
              <mxPoint x="557.5" y="70" />
            </Array>
          </mxGeometry>
        </mxCell>
        <mxCell id="4j2mSAYdcBih2xaInqb0-199" value="" style="pointerEvents=1;verticalLabelPosition=bottom;shadow=0;dashed=0;align=center;html=1;verticalAlign=top;shape=mxgraph.electrical.electro-mechanical.changeover_contact;rotation=-180;" vertex="1" parent="1">
          <mxGeometry x="516" y="27" width="75" height="22.5" as="geometry" />
        </mxCell>
        <mxCell id="4j2mSAYdcBih2xaInqb0-200" style="edgeStyle=orthogonalEdgeStyle;rounded=0;orthogonalLoop=1;jettySize=auto;html=1;entryX=0.51;entryY=0.511;entryDx=0;entryDy=0;entryPerimeter=0;dashed=1;" edge="1" parent="1" source="4j2mSAYdcBih2xaInqb0-201" target="4j2mSAYdcBih2xaInqb0-199">
          <mxGeometry relative="1" as="geometry" />
        </mxCell>
        <mxCell id="4j2mSAYdcBih2xaInqb0-201" value="" style="pointerEvents=1;verticalLabelPosition=bottom;shadow=0;dashed=0;align=center;html=1;verticalAlign=top;shape=mxgraph.electrical.electro-mechanical.relay_coil;rotation=-90;" vertex="1" parent="1">
          <mxGeometry x="533.5" y="-23" width="39.5" height="25" as="geometry" />
        </mxCell>
        <mxCell id="4j2mSAYdcBih2xaInqb0-202" value="К2" style="text;html=1;align=center;verticalAlign=middle;resizable=0;points=[];autosize=1;" vertex="1" parent="1">
          <mxGeometry x="538.38" y="-23" width="30" height="20" as="geometry" />
        </mxCell>
        <mxCell id="4j2mSAYdcBih2xaInqb0-203" value="" style="pointerEvents=1;verticalLabelPosition=bottom;shadow=0;dashed=0;align=center;html=1;verticalAlign=top;shape=mxgraph.electrical.resistors.resistor_2;rotation=90;" vertex="1" parent="1">
          <mxGeometry x="540.38" y="87" width="35" height="10" as="geometry" />
        </mxCell>
        <mxCell id="4j2mSAYdcBih2xaInqb0-204" value="N" style="text;html=1;align=center;verticalAlign=middle;resizable=0;points=[];autosize=1;" vertex="1" parent="1">
          <mxGeometry x="547.88" y="107" width="20" height="20" as="geometry" />
        </mxCell>
        <mxCell id="4j2mSAYdcBih2xaInqb0-205" value="&lt;div&gt;Освещение&lt;/div&gt;&lt;div&gt;ночник&lt;br&gt;&lt;/div&gt;" style="text;html=1;align=center;verticalAlign=middle;resizable=0;points=[];autosize=1;rotation=-90;" vertex="1" parent="1">
          <mxGeometry x="536.38" y="82" width="80" height="30" as="geometry" />
        </mxCell>
        <mxCell id="4j2mSAYdcBih2xaInqb0-219" style="edgeStyle=orthogonalEdgeStyle;rounded=0;orthogonalLoop=1;jettySize=auto;html=1;exitX=0;exitY=1;exitDx=0;exitDy=0;endArrow=classicThin;endFill=1;" edge="1" parent="1" source="4j2mSAYdcBih2xaInqb0-208" target="4j2mSAYdcBih2xaInqb0-213">
          <mxGeometry relative="1" as="geometry">
            <Array as="points">
              <mxPoint x="930" y="239" />
              <mxPoint x="930" y="259" />
              <mxPoint x="941" y="259" />
            </Array>
          </mxGeometry>
        </mxCell>
        <mxCell id="4j2mSAYdcBih2xaInqb0-220" style="edgeStyle=orthogonalEdgeStyle;rounded=0;orthogonalLoop=1;jettySize=auto;html=1;exitX=0;exitY=0.75;exitDx=0;exitDy=0;endArrow=classicThin;endFill=1;" edge="1" parent="1" source="4j2mSAYdcBih2xaInqb0-208" target="4j2mSAYdcBih2xaInqb0-216">
          <mxGeometry relative="1" as="geometry" />
        </mxCell>
        <mxCell id="4j2mSAYdcBih2xaInqb0-221" style="edgeStyle=orthogonalEdgeStyle;rounded=0;orthogonalLoop=1;jettySize=auto;html=1;exitX=0;exitY=0.5;exitDx=0;exitDy=0;endArrow=classicThin;endFill=1;" edge="1" parent="1" source="4j2mSAYdcBih2xaInqb0-208" target="4j2mSAYdcBih2xaInqb0-217">
          <mxGeometry relative="1" as="geometry">
            <Array as="points">
              <mxPoint x="880" y="239" />
              <mxPoint x="880" y="259" />
              <mxPoint x="886" y="259" />
            </Array>
          </mxGeometry>
        </mxCell>
        <mxCell id="4j2mSAYdcBih2xaInqb0-222" style="edgeStyle=orthogonalEdgeStyle;rounded=0;orthogonalLoop=1;jettySize=auto;html=1;exitX=0;exitY=0.25;exitDx=0;exitDy=0;entryX=0.5;entryY=-0.067;entryDx=0;entryDy=0;entryPerimeter=0;endArrow=classicThin;endFill=1;" edge="1" parent="1" source="4j2mSAYdcBih2xaInqb0-208" target="4j2mSAYdcBih2xaInqb0-218">
          <mxGeometry relative="1" as="geometry">
            <Array as="points">
              <mxPoint x="860" y="239" />
              <mxPoint x="860" y="259" />
              <mxPoint x="852" y="259" />
            </Array>
          </mxGeometry>
        </mxCell>
        <mxCell id="4j2mSAYdcBih2xaInqb0-208" value="I2C RTC" style="rounded=0;whiteSpace=wrap;html=1;rotation=-90;" vertex="1" parent="1">
          <mxGeometry x="865.88" y="170" width="50" height="87" as="geometry" />
        </mxCell>
        <mxCell id="4j2mSAYdcBih2xaInqb0-213" value="-5v" style="text;html=1;align=center;verticalAlign=middle;resizable=0;points=[];autosize=1;" vertex="1" parent="1">
          <mxGeometry x="926.38" y="280" width="30" height="20" as="geometry" />
        </mxCell>
        <mxCell id="4j2mSAYdcBih2xaInqb0-216" value="+5v" style="text;html=1;align=center;verticalAlign=middle;resizable=0;points=[];autosize=1;" vertex="1" parent="1">
          <mxGeometry x="901.38" y="280" width="30" height="20" as="geometry" />
        </mxCell>
        <mxCell id="4j2mSAYdcBih2xaInqb0-217" value="&lt;div&gt;SDA&lt;/div&gt;&lt;div&gt;20pin&lt;br&gt;&lt;/div&gt;" style="text;html=1;align=center;verticalAlign=middle;resizable=0;points=[];autosize=1;" vertex="1" parent="1">
          <mxGeometry x="860.88" y="275" width="50" height="30" as="geometry" />
        </mxCell>
        <mxCell id="4j2mSAYdcBih2xaInqb0-218" value="&lt;div&gt;SCL&lt;/div&gt;&lt;div&gt;21pin&lt;br&gt;&lt;/div&gt;" style="text;html=1;align=center;verticalAlign=middle;resizable=0;points=[];autosize=1;" vertex="1" parent="1">
          <mxGeometry x="827" y="275" width="50" height="30" as="geometry" />
        </mxCell>
        <mxCell id="4j2mSAYdcBih2xaInqb0-227" style="edgeStyle=orthogonalEdgeStyle;rounded=0;orthogonalLoop=1;jettySize=auto;html=1;exitX=0;exitY=0.5;exitDx=0;exitDy=0;entryX=0.521;entryY=0.033;entryDx=0;entryDy=0;entryPerimeter=0;endArrow=classicThin;endFill=1;" edge="1" parent="1" source="4j2mSAYdcBih2xaInqb0-223" target="4j2mSAYdcBih2xaInqb0-226">
          <mxGeometry relative="1" as="geometry" />
        </mxCell>
        <mxCell id="4j2mSAYdcBih2xaInqb0-228" style="edgeStyle=orthogonalEdgeStyle;rounded=0;orthogonalLoop=1;jettySize=auto;html=1;exitX=0;exitY=0.25;exitDx=0;exitDy=0;entryX=0.543;entryY=-0.017;entryDx=0;entryDy=0;entryPerimeter=0;endArrow=classicThin;endFill=1;" edge="1" parent="1" source="4j2mSAYdcBih2xaInqb0-223" target="4j2mSAYdcBih2xaInqb0-225">
          <mxGeometry relative="1" as="geometry" />
        </mxCell>
        <mxCell id="4j2mSAYdcBih2xaInqb0-229" style="edgeStyle=orthogonalEdgeStyle;rounded=0;orthogonalLoop=1;jettySize=auto;html=1;exitX=0;exitY=0.75;exitDx=0;exitDy=0;entryX=0.556;entryY=-0.017;entryDx=0;entryDy=0;entryPerimeter=0;endArrow=classicThin;endFill=1;" edge="1" parent="1" source="4j2mSAYdcBih2xaInqb0-223" target="4j2mSAYdcBih2xaInqb0-224">
          <mxGeometry relative="1" as="geometry" />
        </mxCell>
        <mxCell id="4j2mSAYdcBih2xaInqb0-223" value="DHT 22" style="rounded=0;whiteSpace=wrap;html=1;rotation=-90;" vertex="1" parent="1">
          <mxGeometry x="1017" y="170" width="50" height="87" as="geometry" />
        </mxCell>
        <mxCell id="4j2mSAYdcBih2xaInqb0-224" value="-5v" style="text;html=1;align=center;verticalAlign=middle;resizable=0;points=[];autosize=1;" vertex="1" parent="1">
          <mxGeometry x="1052" y="270" width="30" height="20" as="geometry" />
        </mxCell>
        <mxCell id="4j2mSAYdcBih2xaInqb0-225" value="+5v" style="text;html=1;align=center;verticalAlign=middle;resizable=0;points=[];autosize=1;" vertex="1" parent="1">
          <mxGeometry x="1001.38" y="270" width="30" height="20" as="geometry" />
        </mxCell>
        <mxCell id="4j2mSAYdcBih2xaInqb0-226" value="6pin" style="text;html=1;align=center;verticalAlign=middle;resizable=0;points=[];autosize=1;" vertex="1" parent="1">
          <mxGeometry x="1021.5" y="270" width="40" height="20" as="geometry" />
        </mxCell>
      </root>
    </mxGraphModel>
  </diagram>
</mxfile>
